<svg xmlns="http://www.w3.org/2000/svg" viewBox="0 0 37 37" shape-rendering="crispEdges" style="fill: rgb(255, 255, 255);"><path fill="#ffffff" d="M0 0h37v37H0z"/><path stroke="#000000" d="M2 2.5h7m1 0h3m1 0h5m3 0h1m2 0h1m2 0h7M2 3.5h1m5 0h1m2 0h1m1 0h1m1 0h2m3 0h2m6 0h1m5 0h1M2 4.5h1m1 0h3m1 0h1m2 0h1m1 0h2m1 0h2m1 0h2m2 0h1m1 0h2m1 0h1m1 0h3m1 0h1M2 5.5h1m1 0h3m1 0h1m1 0h2m5 0h3m3 0h3m2 0h1m1 0h3m1 0h1M2 6.5h1m1 0h3m1 0h1m1 0h1m1 0h2m4 0h1m2 0h1m2 0h1m3 0h1m1 0h3m1 0h1M2 7.5h1m5 0h1m1 0h3m4 0h1m1 0h1m2 0h1m1 0h3m1 0h1m5 0h1M2 8.5h7m1 0h1m1 0h1m1 0h1m1 0h1m1 0h1m1 0h1m1 0h1m1 0h1m1 0h1m1 0h7M10 9.5h1m1 0h3m4 0h1m1 0h3m2 0h1M2 10.5h1m3 0h1m1 0h3m2 0h1m3 0h4m2 0h9m2 0h1M2 11.5h5m2 0h1m6 0h2m1 0h1m3 0h1m1 0h1m5 0h2M2 12.5h1m1 0h3m1 0h3m1 0h1m1 0h4m2 0h1m1 0h1m2 0h1m1 0h1m1 0h1m1 0h1M2 13.5h6m2 0h6m1 0h1m3 0h1m2 0h1m1 0h1m1 0h1m1 0h1m2 0h2M2 14.5h1m3 0h3m1 0h1m4 0h1m1 0h2m2 0h1m2 0h3m1 0h1m1 0h1m2 0h2M2 15.5h1m6 0h1m1 0h6m3 0h4m2 0h1m2 0h1m1 0h2M2 16.5h4m2 0h6m2 0h2m1 0h1m2 0h2m1 0h2m2 0h5M2 17.5h1m1 0h4m3 0h1m3 0h5m3 0h2m1 0h1m1 0h1m1 0h2M2 18.5h1m1 0h2m2 0h2m2 0h1m6 0h1m1 0h4m1 0h6M2 19.5h3m1 0h1m3 0h1m2 0h1m1 0h1m1 0h2m6 0h1m6 0h2M2 20.5h1m4 0h5m3 0h5m3 0h4m1 0h3m1 0h2M2 21.5h2m1 0h1m1 0h1m2 0h2m1 0h2m1 0h5m2 0h1m1 0h1m2 0h1m1 0h2m2 0h1M2 22.5h5m1 0h3m5 0h2m2 0h3m2 0h1m2 0h4m1 0h2M2 23.5h2m1 0h1m1 0h1m4 0h2m1 0h2m1 0h1m2 0h1m1 0h3m1 0h1m5 0h1M4 24.5h3m1 0h1m1 0h1m2 0h4m1 0h1m2 0h1m1 0h1m1 0h2m1 0h1m2 0h1m1 0h1M5 25.5h3m3 0h1m7 0h1m1 0h3m2 0h2m2 0h2m1 0h2M2 26.5h3m3 0h4m1 0h7m3 0h1m2 0h6m1 0h1M10 27.5h1m5 0h4m2 0h5m3 0h1m1 0h1M2 28.5h7m1 0h3m1 0h2m1 0h1m2 0h1m5 0h1m1 0h1m1 0h1M2 29.5h1m5 0h1m4 0h4m1 0h1m2 0h2m1 0h3m3 0h1m2 0h1M2 30.5h1m1 0h3m1 0h1m1 0h1m1 0h2m2 0h1m1 0h1m2 0h1m2 0h1m1 0h6m1 0h2M2 31.5h1m1 0h3m1 0h1m2 0h1m2 0h2m4 0h3m2 0h2m1 0h3m2 0h1M2 32.5h1m1 0h3m1 0h1m3 0h2m2 0h2m1 0h1m2 0h2m1 0h1m1 0h2m1 0h2M2 33.5h1m5 0h1m6 0h1m1 0h4m2 0h1m2 0h1m1 0h1m1 0h1M2 34.5h7m1 0h2m7 0h1m1 0h1m1 0h4m4 0h1m2 0h1"/></svg>