<?xml version="1.0" standalone="no"?>
<!DOCTYPE svg PUBLIC "-//W3C//DTD SVG 20010904//EN"
 "http://www.w3.org/TR/2001/REC-SVG-20010904/DTD/svg10.dtd">
<svg version="1.0" xmlns="http://www.w3.org/2000/svg"
 width="128.000000pt" height="128.000000pt" viewBox="0 0 128.000000 128.000000"
 preserveAspectRatio="xMidYMid meet">
<metadata>
Created by potrace 1.14, written by Peter Selinger 2001-2017
</metadata>
<g transform="translate(0.000000,128.000000) scale(0.100000,-0.100000)"
fill="#000000" stroke="none">
<path d="M408 1264 c-50 -16 -89 -56 -103 -104 -12 -43 -64 -145 -85 -167 -11
-12 -51 -38 -90 -58 -73 -39 -122 -89 -127 -130 -6 -39 24 -83 70 -106 23 -12
42 -21 42 -20 0 1 7 0 15 -3 8 -3 34 -10 58 -16 56 -14 70 -43 53 -101 -14
-45 -57 -91 -130 -139 -25 -17 -54 -36 -63 -42 -22 -15 -48 -79 -48 -116 0
-40 40 -103 85 -133 39 -27 183 -80 255 -94 19 -4 40 -11 47 -17 16 -12 118
-16 178 -6 28 5 59 10 70 12 43 7 112 28 155 48 43 19 89 40 100 43 41 13 252
123 281 146 44 34 73 84 83 142 4 21 10 35 15 33 9 -6 8 174 -1 189 -18 30
-23 103 -18 305 3 109 1 123 -23 167 -46 86 -210 120 -323 67 -44 -21 -59 -36
-102 -104 -35 -55 -56 -78 -69 -77 -17 1 -19 8 -16 60 4 86 -31 160 -89 186
-109 48 -155 55 -220 35z"/>
</g>
</svg>
