<svg version="1.1" xmlns="http://www.w3.org/2000/svg" xmlns:xlink="http://www.w3.org/1999/xlink" width="1024" height="1024" viewBox="0 0 1024 1024"><defs/><g><rect fill="rgb(255,255,255)" stroke="none" x="0" y="0" width="1024" height="1024" transform="matrix(1 0 0 1 0 0)" fill-opacity="1"/><path fill="rgb(255,127,127)" stroke="rgb(0,0,0)" paint-order="fill stroke markers" d=" M 512 512 L 511.70004569145306 511.9947642780688 L 511.4003655037885 511.9790603019785 L 511.1012334187209 511.9528976393814 L 510.80292313968823 511.91629223150704 L 510.5057079528624 511.8692663858785 L 510.2098605883371 511.8118487661182 L 509.9156530815532 511.7440743788492 L 509.62335663502023 511.6659845576958 L 509.33324148039316 511.5776269443914 L 509.0455767409634 511.4790554669992 L 508.76063029462273 511.3703303152574 L 508.4786686373583 511.2515179130561 L 508.1999567473376 511.1226908880589 L 507.9247579496408 510.9839280384814 L 507.6533337816992 510.8353142970387 L 507.3859438594961 510.6769406920784 L 507.1228457445885 510.50890430591403 L 506.86429481200616 510.33130823037527 L 506.6105441190839 510.1442615195942 L 506.36184427528457 509.947879140046 L 506.11844331306764 509.7422819178646 L 505.8805865598592 509.527596483455 L 505.6485165111782 509.303955213424 L 505.4224727049733 509.07149616985424 L 505.2026915972251 508.83036303694473 L 504.9894064388665 508.5807050550452 L 504.7828471540742 508.32267695210965 L 504.583240219985 508.0564388725985 L 504.3908085478873 507.7821563038569 L 504.20577136594005 507.5 L 504.0283441034704 507.2101459033365 L 503.8587382768983 506.9127750633612 L 503.6971613773403 506.60807355335123 L 503.5438167599386 506.2962323845984 L 503.3989035349656 505.977447418314 L 503.26261646075056 505.6519192752413 L 503.13514583847507 505.31985324301223 L 503.01667740888337 504.9814591812875 L 502.9073922509534 504.63695142471687 L 502.8074666825723 504.2865486837615 L 502.7170721632599 503.93047394341676 L 502.6363751989848 503.5689543598784 L 502.5655372491127 503.20222115519374 L 502.5047146355298 502.83050950994124 L 502.4540584539816 502.4540584539816 L 502.41371448766586 502.0731107553266 L 502.38382312311876 501.6879128071697 L 502.36451926843245 501.2987145131255 L 502.3559322738395 500.90576917072525 L 502.3581858547019 500.5093333532153 L 502.37139801693746 500.10966678970834 L 502.39568098491975 499.7070322437351 L 502.43114113188244 499.301695390248 L 502.4778789128619 498.89392469112585 L 502.53598880020775 498.48399126923164 L 502.60555922169146 498.0721687810753 L 502.68667250124304 497.65873328813325 L 502.77940480234224 497.24396312687816 L 502.88382607409204 496.8281387775726 L 503 496.4115427318801 L 503.12798394949203 495.99445935934904 L 503.2678289321824 495.5771747728239 L 503.41957955492256 495.15997669283985 L 503.5832739816497 494.74315431105595 L 503.75894389605634 494.3269981527853 L 503.94661446709915 493.9117999386765 L 504.1463043173656 493.49785244560593 L 504.35802549431537 493.0854493668375 L 504.5817834444123 492.6748851715079 L 504.81757699016094 492.2664549634959 L 505.06539831006256 491.86045433973453 L 505.32523292150114 491.45717924802466 L 505.597059666572 491.0569258444095 L 505.8808507008626 490.65999035016927 L 506.1765714851933 490.26666890849594 L 506.48418078032756 489.8772574409073 L 506.8036306446567 489.492051503461 L 507.1348664348644 489.1113461428289 L 507.4778268095759 488.7354357522903 L 507.83244373599365 488.36461392770696 L 508.1986424995224 487.9991733235381 L 508.5763417163824 487.63940550895734 L 508.9654533492118 487.28560082413105 L 509.3658827256551 486.93804823671945 L 509.7775285599347 486.5970351986605 L 510.20028297740157 486.2628475032965 L 510.6340315420592 485.9357691429056 L 511.07865328705395 485.61608216669583 L 511.53402074812453 485.3040665393243 L 512 484.99999999999994 L 512.4764506957379 484.7041579222305 L 512.963226108989 484.41681317427293 L 513.4601731791781 484.13823598034736 L 513.9671325595843 483.8686937826729 L 514.4839386683083 483.6084511043852 L 515.0104197421084 483.35776941339367 L 515.5463978930898 483.1169069872375 L 516.0916891682259 482.8861187789978 L 516.6461036116949 482.66565628432437 L 517.209445330008 482.4557674096337 L 517.7815125599093 482.25669634153576 L 518.3620977390234 482.0686834175455 L 518.9509875792254 481.8919649981362 L 519.5479631427096 481.72677334018886 L 520.1527999207294 481.5733364718943 L 520.7652679149805 481.4318780691614 L 521.3851317215999 481.3026173335865 L 522.0121506177483 481.185768872037 L 522.646078650749 481.08154257790227 L 523.2866647297471 480.990143514065 L 523.9336527198585 480.91177179764315 L 524.5867815387746 480.84662248655593 L 525.2457852557864 480.7948854679622 L 525.9103931931924 480.756745348623 L 526.5803300300541 480.73238134723556 L 527.25531590826 480.72196718878894 L 527.9350665408581 480.72567100098826 L 528.6192933226205 480.74365521279395 L 529.3077034427943 480.7760764551236 L 530 480.8230854637602 L 530.695882119235 480.8848269845133 L 531.3950450709353 480.9614396806748 L 532.0971803920545 481.05305604281386 L 532.8019760091117 481.15980230095244 L 533.5091163631643 481.28179833916283 L 534.2182825366555 481.419157612627 L 534.929152382093 481.57198706719817 L 535.6414006525052 481.7403870615019 L 536.3546991336287 481.92445129161524 L 537.0687167777751 482.1242667183599 L 537.7831198393269 482.33991349724505 L 538.4975720118108 482.5714649110952 L 539.2117345664936 482.8189873053951 L 539.9252664924517 483.08254002638625 L 540.6378246380551 483.3621753619448 L 541.3490638538169 483.6579384852729 L 542.0586371365479 483.9698674014313 L 542.7661957747641 484.2979928967433 L 543.4713894952896 484.64233849109587 L 544.173866610997 485.00292039316537 L 544.8732741696298 485.3797474585919 L 545.5692581036463 485.772821151127 L 546.2614633810288 486.1821355067772 L 546.9495341569976 486.6076771009652 L 547.6331139265711 487.0494250187295 L 548.3118456779108 487.5073508279813 L 548.9853720463932 487.98141855583737 L 549.6533354693453 488.47158466804575 L 550.3153783413843 488.9777980515206 L 550.9711431702997 489.5 L 551.6202727334146 490.038124202841 L 552.262410234367 490.5920967369634 L 552.897199460246 491.16183606195483 L 553.5242849390214 491.7472530183446 L 554.1433120972041 492.3482508290575 L 554.7539274176736 492.9647251040526 L 555.3557785976099 493.59656384815526 L 555.9485147064656 494.2436474720858 L 556.5317863439165 494.90584880668916 L 557.1052457977235 495.58303312036793 L 557.6685472014469 496.27505813971936 L 558.2213466919444 496.98177407337755 L 558.7633025665923 497.7030236390582 L 559.2940754401652 498.4386420938037 L 559.8133284013088 499.18845726742524 L 560.3207271685445 499.9522895991366 L 560.8159402457402 500.72995217737235 L 561.2986390769837 501.52125078278493 L 561.7684982007964 502.32598393440924 L 562.2251954036225 503.1439429389866 L 562.6684118725304 503.97491194343615 L 563.0978323470649 504.8186679904606 L 563.5131452701845 505.6749810772729 L 563.9140429382237 506.5436142174285 L 564.3002216498165 507.42432350574796 L 564.6713818537186 508.3168581863102 L 565.0272282954677 509.2209607234997 L 565.3674701628196 510.13636687608647 L 565.6918212298981 511.0628057743179 L 565.9999999999999 512 L 566.2917298469919 512.9476656695444 L 566.5667391552424 513.9055125199566 L 566.8247614580259 514.8732439977376 L 567.0655355743421 515.8505573506757 L 567.2888057440917 516.837143722495 L 567.4943217615495 517.832688250335 L 567.681839107078 518.8368701650288 L 567.8511190770244 519.8493628941477 L 568.0019289117441 520.869834167781 L 568.1340419216957 521.897946127015 L 568.247237611551 522.933355435076 L 568.341301802267 523.9757133911029 L 568.4160267510649 525.0246660465098 L 568.4712112692628 526.0798543239006 L 568.5066608379103 527.1409141384974 L 568.5221877211729 528.2074765220395 L 568.5176110774152 529.2791677491136 L 568.492757067932 530.3556094658718 L 568.447458963279 531.4364188210922 L 568.3815572471543 532.52120859954 L 568.294899717781 533.6095873575815 L 568.1873415867472 534.7011595610041 L 568.0587455752534 535.7955257249967 L 567.908982007727 536.8922825562389 L 567.7379289027538 537.9910230970529 L 567.5454720612884 539.0913368715649 L 567.3315051520974 540.1928100338257 L 567.0959297943969 541.2950255178395 L 566.8386556376399 542.3975631894452 L 566.5596004384195 543.4999999999999 L 566.2586901344434 544.6019101418063 L 565.9358589155485 545.7028652052317 L 565.5910492917124 546.8024343374601 L 565.2242121580334 547.9001844028218 L 564.8353068566398 548.9956801446423 L 564.4243012354964 550.0884843485521 L 563.9911717040786 551.1781580071981 L 563.5359032858794 552.2642604862979 L 563.0584896677228 553.3463496919742 L 562.5589332458524 554.4239822393114 L 562.0372451687696 555.4967136220704 L 561.4934453767943 556.5640983834998 L 560.9275626383223 557.625690288181 L 560.3396345827572 558.6810424948444 L 559.7297077300917 559.7297077300917 L 559.0978375171198 560.7712384629604 L 558.4440883202559 561.8051870802653 L 557.7685334749457 562.8311060626536 L 557.0712552916476 563.8485481613042 L 556.352345068371 564.8570665752093 L 555.6119030997535 565.8562151289678 L 554.8500386826656 566.8455484510276 L 554.066870118328 567.8246221523056 L 553.2625247109314 568.792993005121 L 552.4371387627486 569.7502191223737 L 551.5908575657287 570.6958601368967 L 550.7238353895682 571.6294773809194 L 549.8362354662506 572.5506340655685 L 548.9282299710508 573.4588954603412 L 547.9999999999998 574.3538290724794 L 547.05173554381 575.235004826178 L 546.0836354582556 576.1019952415578 L 545.0959074310128 576.9543756133316 L 544.0887679449604 577.7917241890987 L 543.0624422379412 578.6136223471934 L 542.017164258994 579.4196547740237 L 540.953176621055 580.2094096408255 L 539.8707305501438 580.9824787797686 L 538.7700858310338 581.7384578593407 L 537.651510749425 582.4769465589428 L 536.5152820306238 583.1975487426282 L 535.361684774746 583.8998726319132 L 534.1910123884556 584.583530977594 L 533.0035665132552 585.2481412304995 L 531.7996569503428 585.8933257111133 L 530.5796015820544 586.5187117779961 L 529.343726289912 587.1239319949412 L 528.0923648692944 587.7086242967962 L 526.8258589407575 588.2724321538831 L 525.5445578580205 588.8150047349518 L 524.24881861265 589.3359970685989 L 522.9390057354611 589.8350702030871 L 521.6154911946661 590.3118913645 L 520.2786542907982 590.7661341131668 L 518.9288815484388 591.1974784982933 L 517.5665666047812 591.6056112107335 L 516.1921100950598 591.9902257338409 L 514.805919534881 592.3510224923349 L 513.4084091994888 592.6877089991203 L 512 592.9999999999995 L 510.5811193566489 593.2876176162142 L 509.15220106907594 593.5502914847577 L 507.7136851837029 593.7877588963992 L 506.26601785823294 593.9997649313572 L 504.80965122331827 594.1860625925685 L 503.3450432414383 594.3464129364926 L 501.8726575630323 594.4805852013934 L 500.3929633799306 594.5883569330465 L 498.9064352761327 594.6695141078126 L 497.413553075978 594.723851253025 L 495.9148016897573 594.7511715646376 L 494.41067095681774 594.7512870220795 L 492.901655486206 594.7240185002661 L 491.3882544949084 594.6691958787144 L 489.87097164373466 594.586658147715 L 488.35031487090157 594.4762535115074 L 486.8267962233726 594.3378394884169 L 485.30093168600473 594.1712830079008 L 483.77324100856464 593.9764605044603 L 482.24424753066705 593.7532580083736 L 480.7144780046955 593.5015712332053 L 479.1844624167662 593.2213056600501 L 477.65473380579306 592.9123766184691 L 476.1258280807146 592.574709364077 L 474.59828383594834 592.2082391527431 L 473.07264216513016 591.8129113113656 L 471.54944647320656 591.3886813051831 L 470.02924228694167 590.9355148015877 L 468.5125770639038 590.4533877304034 L 467.00000000000034 589.9422863405991 L 465.4920618356224 589.4022072534003 L 463.98931466047185 588.8331575117718 L 462.4923117171344 588.2351546262387 L 461.00160720346815 587.6082266170193 L 459.51775607387964 586.9524120524424 L 458.04131383955126 586.2677600836198 L 456.57283636769665 585.5543304753552 L 455.11287967990955 584.8121936332607 L 453.6619997496804 584.0414306270608 L 452.22075229915214 583.2421332100645 L 450.78969259518607 582.4144038347843 L 449.3693752448112 581.5583556646836 L 447.9603539901318 580.6741125820398 L 446.56318150276286 579.7618091919005 L 445.1784091778716 578.8215908221283 L 443.8065869278963 577.8536135195126 L 442.4482629760173 576.8580440419432 L 441.10398364945706 575.8350598466347 L 439.77429317268115 574.7848490743912 L 438.4597334605785 573.7076105299074 L 437.1608439116942 572.603553658099 L 435.87816120159107 571.4728985164583 L 434.61221907641783 570.3158757434333 L 433.3635481467556 569.1327265228281 L 432.13267568182374 567.9237025442267 L 430.92012540411747 566.6890659594388 L 429.7264172845544 565.4290893349738 L 428.55206733820813 564.1440556005471 L 427.39758742070205 562.834257993622 L 426.2634850253411 561.4999999999997 L 425.15026308105854 560.141595290461 L 424.0584197512514 558.7593676534744 L 422.9884482335825 557.3536509239805 L 421.94083656082404 555.9247889082653 L 420.9160674028172 554.47313530494 L 419.9146178696264 552.9990536220405 L 418.93695931595886 551.5029170902653 L 417.9835571469283 549.9851085723732 L 417.05487062523514 548.4460204687568 L 416.15135267983794 546.886054619218 L 415.27344971619044 545.3056222009668 L 414.4216014281178 543.7051436228694 L 413.59624061140426 542.0850484159694 L 412.7977929791661 540.4457751203142 L 412.026676979082 538.7877711681108 L 411.2833036125522 537.1114927632453 L 410.56807625585765 535.4174047571962 L 409.8813904833913 533.7059805213739 L 409.22363389303024 531.9777018159242 L 408.59518593371877 530.2330586550275 L 407.9964177353326 528.4725491687361 L 407.42769194089084 526.6966794613829 L 406.88936254118465 524.905963466605 L 406.38177471189 523.1009227990248 L 405.9052646532298 521.2820866026256 L 405.46015943225143 519.4499913958725 L 405.04677682778583 517.6051809136193 L 404.6654251781498 515.7482059458486 L 404.3164032316573 513.8796241732954 L 404.0000000000007 512 L 403.7164946145635 510.10990438284216 L 403.46615618572685 508.2099146581085 L 403.2492436652276 506.3006143651435 L 403.0660057116279 504.3825930671415 L 402.91668055895457 502.45644616913154 L 402.80149588856426 500.5227747332117 L 402.72066870429114 498.5821852910934 L 402.6744052109313 496.6352896540089 L 402.6629006961189 494.6827047200465 L 402.6863394156456 492.7250522789709 L 402.7448944822757 490.76295881459066 L 402.83872775810795 488.7970553047383 L 402.96798975053287 486.8279770189217 L 403.1328195118339 484.8563633137174 L 403.3333445424805 482.8828574259667 L 403.5696806981583 480.9081062638427 L 403.8419321005814 478.93276019585863 L 404.15019105213025 476.95747283788126 L 404.49453795435835 474.9829008382215 L 404.8750412304071 473.0097036608741 L 405.29175725137054 471.0385433669725 L 405.74473026664685 469.0700843945367 L 406.23399233831526 467.10499333658277 L 406.75956327957306 465.1439387176681 L 407.3214505972676 463.18759076894963 L 407.91964943855714 461.2366212018252 L 408.55414254173115 459.2917029802389 L 409.22490019122154 457.35351009172274 L 409.93188017683315 455.4227173172528 L 410.6750277572213 453.50000000000045 L 411.45427562764286 451.5860338130511 L 412.269543892005 449.68149452617547 L 413.1207400392351 447.78705777172877 L 414.0077589239947 445.9033988097582 L 414.93048275175516 444.0311922924014 L 415.88878106825683 442.17111202765466 L 416.8825107533681 440.3238307425915 L 417.9115160193579 438.490019846117 L 418.97562841360116 436.67034919133494 L 420.0746668257233 434.8654868376157 L 421.20843749920107 433.0760988124425 L 422.37673404742685 431.30284887312223 L 423.5793374742428 429.54639826844453 L 424.81601619895605 427.8074055003701 L 426.0865260858351 426.086526085835 L 427.39061047809463 424.3844123187529 L 428.7280002363695 422.70171303229984 L 430.0984137816762 421.0390733615676 L 431.5015571428653 419.3971345066665 L 432.9371240085562 417.7765334963663 L 434.4047957835555 416.1779029523562 L 435.9042416497491 414.6018708542098 L 437.43511863146176 413.049060305141 L 438.99707166527526 411.52008929863223 L 440.58973367429525 410.01557048602115 L 442.2127256468512 408.53611094513155 L 443.8656567196206 407.08231195002816 L 445.5481242651566 405.65476874198487 L 447.2597139838066 404.25407030174523 L 449.00000000000045 402.88079912316147 L 450.7685449628879 401.5355309882951 L 452.5649001513066 400.2188347440606 L 454.38860558305197 398.93127208049685 L 456.23919012842964 397.67339731074674 L 458.1161716280612 396.4457571528279 L 460.01905701491296 395.2488905132764 L 461.9473424405243 394.0833282727432 L 463.90051340539725 392.94959307362524 L 465.87804489352004 391.84819910981093 L 467.879401510989 390.7796519186186 L 469.90403762869 389.7444481750091 L 471.951397529007 388.74307548814886 L 474.02091555651674 387.7760122004024 L 476.1120162726268 386.8437271888317 L 478.2241146141212 385.94667966927733 L 480.35661605556373 385.0853190031004 L 482.5089167755194 384.2600845066564 L 484.6804038265466 383.4714052635786 L 486.8704553089091 382.7196999399434 L 489.0784405479653 382.0053766023892 L 491.3037202751776 381.328832539264 L 493.54564681269534 380.69045408486846 L 495.803564261456 380.090616446869 L 498.0768086927485 379.52968353694666 L 500.36470834318766 379.00800780475265 L 502.66658381303614 378.52593007523615 L 504.98174826782116 378.08377938941226 L 507.3095076431839 377.68187284863416 L 509.64916085289804 377.32051546243474 L 511.99999999999994 377.00000000000057 L 514.3613105909645 376.72060684534085 L 516.732371752859 376.4826038562112 L 519.112456453416 376.286246226854 L 521.5008317239499 376.1317763546125 L 523.8967588850552 376.01942371047727 L 526.299493775015 375.94940471362077 L 528.7082869808455 375.92192260997524 L 531.1223840719128 375.93716735490875 L 533.5410258360398 375.99531550005 L 535.9634485180362 376.09653008431576 L 538.3888840605761 376.24096052918856 L 540.8165603473412 376.42874253829496 L 543.2457014483628 376.65999800133125 L 545.6755278674736 376.93483490238174 L 548.1052567918015 377.25334723267537 L 550.5341023432163 377.61561490782344 L 552.9612758316554 378.0217036895791 L 555.3859860102424 378.4716651121608 L 557.8074393321218 378.9655364131765 L 560.2248402089191 379.50334046918726 L 562.6373912707508 380.0850857359457 L 565.044293627693 380.71076619334326 L 567.4447471326278 381.38036129509896 L 569.8379506453787 382.09383592322246 L 572.2231022980494 382.8511403472776 L 574.5993997614801 383.6522101884792 L 576.966040512729 384.49696638864486 L 579.3222221034965 385.3853151840301 L 581.6671424293985 386.31714808406906 L 583.9999999999998 387.292341855041 L 586.3199942095207 388.31075850868535 L 588.6263256081213 389.372245295781 L 590.9181961736772 390.4766347047082 L 593.1948095839523 391.62374446500814 L 595.4553714890772 392.8133775559519 L 597.6990897842425 394.0453222201328 L 599.9251748825142 395.31935198209067 L 602.1328399876762 396.63522567197595 L 604.3213013670111 397.99268745426247 L 606.4897786239212 399.39146686151037 L 608.6374949703015 400.8312788331857 L 610.7636774985674 402.3118237595367 L 612.8675574532433 403.8327875305247 L 614.9483705020233 405.3938415898119 L 617.0053570062023 406.9946429937978 L 619.0377622903911 408.6348344757012 L 621.0448369114183 410.31404451468154 L 623.0258369263225 412.0318874099865 L 624.9800241593489 413.787963360121 L 626.9066664678467 415.5818585470192 L 628.8050380069826 417.41314522520935 L 630.6744194931723 419.28138181595585 L 632.5140984661366 421.186113006356 L 634.323369549492 423.126869853378 L 636.1015347097823 425.10316989281654 L 637.8479035138553 427.1145172531405 L 639.561793384499 429.16040277421433 L 641.2425298542394 431.2403041308596 L 642.8894468172125 433.3536859612346 L 644.5018867790192 435.5 L 646.0792011044693 437.6786852162364 L 647.6207502631312 439.8891679560871 L 649.12590407259 442.1308620900837 L 650.5940419393316 444.4031691651241 L 652.0245530971625 446.7054785610619 L 653.4168368430746 449.0371676518659 L 654.7703027704736 451.3976019713135 L 656.084370999679 453.7861353831672 L 657.3584724056145 456.2021102557966 L 658.5920488426019 458.6448576411956 L 659.7845533661734 461.11369745834645 L 660.9354504518212 463.6079386808831 L 662.0442162106006 466.12687952900257 L 663.1103386015039 468.66980766556753 L 664.1333176405285 471.2360003963529 L 665.1126656063525 473.82472487437246 L 666.047907242546 476.4352383082348 L 666.9385799562351 479.06678817446686 L 667.7842340131446 481.7186124337421 L 668.5844327289414 484.389939750958 L 669.3387526568058 487.07998971909126 L 670.0467837711549 489.7879730867734 L 670.7081296474478 492.51309198951685 L 671.3224076379977 495.2545401845217 L 671.8892490437255 498.01150328900076 L 672.4082992817802 500.7831590219447 L 672.8792180489622 503.5686774492616 L 673.3016794808825 506.3672212322163 L 673.6753723067889 509.17794587909134 L 674.0000000000005 511.99999999999994 L 674.2752809238827 514.8325255647711 L 674.5009484733055 517.6746581638265 L 674.6767512115205 520.5255272719755 L 674.8024530024038 523.3842565150413 L 674.8778331380008 526.2499639392421 L 674.9026864613237 529.1217622832417 L 674.8768234843415 531.9987592527846 L 674.8000705011146 534.8800577978348 L 674.6722696960197 537.7647563921262 L 674.4932792470149 540.6519493150435 L 674.2629734238994 543.540726935743 L 673.9812426815188 546.4301759994208 L 673.6479937478712 549.3193799156472 L 673.2631497070712 552.207419048665 L 672.8266500771305 555.0933710095698 L 672.3384508825122 557.9763109502757 L 671.7985247214237 560.8553118591695 L 671.2068608278094 563.7294448583663 L 670.563465128006 566.5977795024654 L 669.8683602920332 569.4593840787124 L 669.1215857794797 572.3133259084742 L 668.323197879961 575.1586716499231 L 667.4732697481179 577.9944876018385 L 666.5718914331287 580.8198400084257 L 665.6191699027129 583.6337953650487 L 664.6152290615992 586.4354207247857 L 663.560209764442 589.2237840056973 L 662.4542698231619 591.997954298716 L 661.2975840086956 594.75700217605 L 660.0903440471398 597.5000000000002 L 658.8327586102725 600.2260222320926 L 657.5250533004433 602.9341457424184 L 656.1674706298191 605.6234501190835 L 654.7602699939789 608.293017977663 L 653.3037276398517 610.941935270556 L 651.7981366279917 613.5692915961398 L 650.243806789187 616.1741805076201 L 648.6410646754064 618.7556998214695 L 646.9902535050766 621.3129519253573 L 645.2917331027028 623.8450440854584 L 643.5458798328299 626.3510887530459 L 641.7530865283537 628.8302038702573 L 639.9137624131937 631.2815131749314 L 638.0283330193324 633.7041465044169 L 636.0972400982397 636.0972400982398 L 634.1209415266925 638.4599368995355 L 632.0999112070067 640.7913868551366 L 630.0346389617032 643.0907472142131 L 627.9256304226234 645.3571828253645 L 625.7734069145181 647.5898664320599 L 623.578505333137 649.7879789663216 L 621.3414780178375 651.9507098405546 L 619.06289261875 654.0772572374143 L 616.7433319585194 656.1668283976164 L 614.3833938886623 658.2186399055859 L 611.9836911405703 660.2319179728422 L 609.544851171192 662.2058987190263 L 607.0675160034375 664.1398284504637 L 604.5523420613374 666.0329639361705 L 602.0000000000006 667.8845726811999 L 599.4111745304153 669.693933197234 L 596.7865642391324 671.4603352703232 L 594.1268814028845 673.1830802256768 L 591.4328517981814 674.86148118941 L 588.7052145059374 676.494863347153 L 585.9447217111808 678.082564199426 L 583.1521384978973 679.6239338136904 L 580.3282426390628 681.1183350729832 L 577.473824381927 682.5651439210399 L 574.5896862285978 683.9637496038224 L 571.6766427119971 685.313554907356 L 568.7355201672408 686.6139763917913 L 565.7671564985117 687.8644446216034 L 562.7724009414918 689.0644043918395 L 559.7521138214155 690.2133149503343 L 556.7071663068189 691.3106502158055 L 553.6384401590499 692.3558989917483 L 550.5468274776129 693.3485651760489 L 547.4332304414248 694.2881679662324 L 544.2985610460494 695.174242060272 L 541.1437408369951 696.0063378528755 L 537.9697006391485 696.7840216271784 L 534.7773802824222 697.5068757417645 L 531.5677283237047 698.1744988129421 L 528.3417017651861 698.7865058922036 L 525.1002657691467 699.3425286387965 L 521.844393369298 699.8422154873367 L 518.5750651787513 700.2852318103991 L 515.2932690947154 700.6712600760125 L 512.0000000000001 701.0000000000015 L 508.6962594614222 701.2711686931063 L 505.38305542520595 701.484500802822 L 502.06140190946496 701.6397486498951 L 498.73231869386717 701.73668235942 L 495.3968310065711 701.7750899864791 L 492.05596920853156 701.754777636268 L 488.7107684752763 701.6755695786582 L 485.36226847624334 701.537308357138 L 482.01151305178746 701.3398548920894 L 478.65954988794925 701.0830885783455 L 475.30743018909016 700.7669073769873 L 471.9562083484991 700.3912279013325 L 468.6069416170682 699.9559854970735 L 465.26068977014376 699.4611343165241 L 461.918514772662 698.9066473869364 L 458.58148044266517 698.2925166728478 L 455.2506521133162 697.6187531324267 L 451.9270962935098 696.8853867677794 L 448.61188032719105 696.0924666691885 L 445.3060720514942 695.2400610532538 L 442.01073945380233 694.3282572949051 L 438.7269503278469 693.3571619532652 L 435.45577192895075 692.3269007913347 L 432.1982706285273 691.2376187894798 L 428.95551156795204 690.0894801527033 L 425.72855831190884 688.8826683116777 L 422.5184725013345 687.6173859175288 L 419.3263135060645 686.2938548303538 L 416.1531380772983 684.9123161014601 L 412.999999999999 683.4730299493203 L 409.8679497453354 681.9762757292305 L 406.7580341232845 680.4223518966677 L 403.6712959355103 678.8115759643465 L 400.60877362862624 677.1442844529658 L 397.57150094796515 675.4208328356553 L 394.56050659196285 673.6415954761161 L 391.576813867274 671.8069655604647 L 388.6214403447371 669.9173550227887 L 385.69539751629645 667.9731944644155 L 382.7996904530043 665.974933066916 L 379.93531746420973 663.9230384988455 L 377.1032697580529 661.8179968162441 L 374.3045311033804 659.6603123569121 L 371.5400774931894 657.4505076284768 L 368.8108768097227 655.1891231902772 L 366.11788849132023 652.8767175290861 L 363.46206320114504 650.5138669286948 L 360.84434249789643 648.101165333393 L 358.26565850861994 645.6392242053678 L 355.72693360372693 643.1286723760553 L 353.2290800743394 640.5701558914832 L 350.7729998120631 637.964337851631 L 348.359583991308 635.3118982438558 L 345.9897127542592 632.6135337704168 L 343.66425489861047 629.8699576701412 L 341.3840675681708 627.0818995342811 L 339.1499959464464 624.2501051165983 L 336.96287295331183 621.3753361377345 L 334.8235189448717 618.4583700839095 L 332.7327414166194 615.500000000001 L 330.69133471000146 612.5010342770669 L 328.70007972248493 609.462296434352 L 326.75974362123634 606.3846248958528 L 324.8710795605116 603.268872761487 L 323.03482640285654 600.1159075729367 L 321.2517084442229 596.9266110742278 L 319.5224351430927 593.7018789671081 L 317.8477008537127 590.4426206612927 L 316.2281845635348 587.1497590196504 L 314.66454963495715 583.8242300983912 L 313.1574435514615 580.4669828823407 L 311.70749766823855 577.0789790153648 L 310.3153269673936 573.6611925260258 L 308.98152981782493 570.214609548551 L 307.70668773985983 566.7402280391838 L 306.49136517474165 563.2390574880101 L 305.3361092590494 559.7121186263345 L 304.2414496041374 556.1604431296926 L 303.2078980806796 552.5850733165918 L 302.2359486083974 548.9870618430566 L 301.3260769510548 545.3674713930816 L 300.4787405167982 541.7273743650704 L 299.6943781639188 538.0678525543614 L 298.97341001211345 534.3899968319315 L 298.3162372593182 530.694906819373 L 297.72324200418734 526.9836905602383 L 297.19478707428874 523.2574641878575 L 296.7312158600843 519.5173515897188 L 296.33285215476394 515.764484068522 L 295.9999999999975 512.0000000000001 L 295.73294353767005 508.2250444876155 L 295.53194686766136 504.4407690142384 L 295.39725391173044 500.6483310909054 L 295.3290882835637 496.8488939027757 L 295.3276531650428 493.0436259523843 L 295.39313118878755 489.23370070030484 L 295.5256843270251 485.4202962033373 L 295.7254537868385 481.60459475032144 L 295.9925599118409 477.78778249570104 L 296.3271020903238 473.97104909094196 L 296.72915866992474 470.15558731392326 L 297.19878687885375 466.3425926964194 L 297.7360227537242 462.53326314978364 L 298.34088107402306 458.7287985889525 L 299.01335530325787 454.9304005548937 L 299.75341753681664 451.1392718356059 L 300.5610184565702 447.3566160858024 L 301.43608729225053 443.5836374453856 L 302.37853178962894 439.8215401568475 L 303.3882381855257 436.07152818170084 L 304.46507118966963 432.3348048160785 L 305.6088739734306 428.6125723056169 L 306.8194681654485 424.90603145973995 L 308.09665385416884 421.21638126548066 L 309.4402095973063 417.5448185009524 L 310.8498924382439 413.89253734860335 L 312.3254379293841 410.26072900836664 L 313.86656016245445 406.6505813108446 L 315.4729518057753 403.06327833064677 L 317.14428414849874 399.49999999999886 L 318.8802071518118 395.9619217227631 L 320.68034950710796 392.4502139889874 L 322.54431870112626 388.96604199010403 L 324.4717010880469 385.5105652349159 L 326.4620619685411 382.0849371664863 L 328.5149456757595 378.6903047800655 L 330.6298756682572 375.32780824216843 L 332.80635462982923 371.9985805109434 L 335.04386457624537 368.7037469579502 L 337.3418669688706 365.4444249914674 L 339.69980283513905 362.22172368146505 L 342.1170928958655 359.03674338636307 L 344.59313769936955 355.89057538169226 L 347.1273177623792 352.78430149079554 L 349.7189937176853 349.7189937176852 L 352.3675064685202 346.69571388217594 L 355.0721773496167 343.715513257427 L 357.83230829491714 340.779432210006 L 360.6471820118879 337.8884998426043 L 363.51606216240714 335.043733639514 L 366.4381935501708 332.2461391150001 L 369.41280231457563 329.4967094646808 L 372.4390961310379 326.7964252200305 L 375.5162644176861 324.1462539061346 L 378.64347854838 321.5471497028069 L 381.8198920720082 319.00005310918385 L 385.0446409379958 316.50589061191886 L 388.3168437279684 314.0655743570875 L 391.6356018935186 311.6800018259138 L 394.99999999999807 309.35005551443885 L 398.4091059762818 307.07660261723674 L 401.8619713704284 304.860494715293 L 405.3576316111787 302.7025674681497 L 408.8951062752078 300.603640310433 L 412.47339936006387 298.564516152866 L 416.0914995627247 296.5859810878719 L 419.74838056368145 294.66880409987573 L 423.4430013164772 292.8137367804085 L 427.17430634262604 291.0215130481094 L 430.94122603181495 289.29284887373683 L 434.7426769473158 287.62844201027895 L 438.57756213651135 286.0289717282684 L 442.4447714464596 284.4950985563908 L 446.3431818443901 283.0274640274892 L 450.27165774304785 281.62669043005405 L 454.2290513307982 280.2933805652889 L 458.2142029063814 279.02811750984694 L 462.2259412182277 277.8314643843237 L 466.2630838082413 276.7039641275917 L 470.32443735993644 275.6461392770667 L 474.40879805083205 274.65849175498505 L 478.51495190900755 273.7415026607748 L 482.64167517369907 272.8956320696022 L 486.78773465984176 272.12131883716904 L 490.9518881264401 271.41898041084005 L 495.13288464866986 270.7890126471711 L 499.3294649935833 270.2317896359142 L 503.5403619993136 269.7476635305677 L 507.7643009576709 269.33696438554034 L 512.0000000000002 268.9999999999965 L 516.2461704861911 268.7370557684465 L 520.5015173967291 268.54839453814475 L 524.7647397276545 268.43425647335596 L 529.0345308883158 268.3948589265474 L 533.3095791018026 268.43039631656467 L 537.5885678079214 268.5410400138431 L 541.8701760686022 268.72693823270845 L 546.1530789756005 268.98821593081504 L 550.4359480603849 269.3249747157711 L 554.7174517060657 269.7372927589933 L 558.9962555612436 270.2252247168368 L 563.2710229556599 270.7888016590399 L 567.5404153175014 271.4280310045219 L 571.8030925922387 272.14289646457013 L 576.0577136628746 272.933357993452 L 580.3029367714529 273.7993517464809 L 584.5374199417122 274.7407900455674 L 588.7598214027379 275.7575613522803 L 592.9688000134956 276.8495302484463 L 597.163015688093 278.0165374243054 L 601.3411298216446 279.25839967424406 L 605.5018057166127 280.5749099001263 L 609.6437090094712 281.9658371222318 L 613.7655080975667 283.4309264978178 L 617.8658745660465 284.9698993473156 L 621.9434836147026 286.58245318816563 L 625.997014484602 288.26826177629744 L 630.0251508843745 290.02697515526233 L 634.0265814160044 291.8582197130105 L 638.000000000002 293.7615982463182 L 641.9441062998085 295.73669003285374 L 645.8576061453093 297.7830509108833 L 649.7392119553026 299.90021336659913 L 653.5876431587952 302.08768662906016 L 657.4016266149921 304.3449567727372 L 661.1798970318322 306.67148682763536 L 664.9211973829379 309.06671689697976 L 668.6242793228497 311.5300642824467 L 672.2879036003964 314.0609236169067 L 675.9108404700701 316.6586670046576 L 679.491870101279 319.3226441691232 L 683.0297829853264 322.05218260797477 L 686.5233803399962 324.84658775565146 L 689.9714745115978 327.70514315323464 L 693.372889374352 330.62711062564745 L 696.7264607269686 333.6117304661269 L 700.0310366862916 336.65822162792887 L 703.285478077884 339.765781923227 L 706.4886588234116 342.9335882291439 L 709.6394663246995 346.16079670087026 L 712.7368018443385 349.44654299182423 L 715.7795808827018 352.78994248078254 L 718.7667335512474 356.19009050593235 L 721.6972049419895 359.6460626057884 L 724.5699554929964 363.1569147669008 L 727.3839613498034 366.72168367829784 L 730.1382147226082 370.33938699258914 L 732.8317242391366 374.0090235936709 L 735.4635152930443 377.729573870947 L 738.0326303877421 381.4999999999979 L 740.5381294755276 385.3192462296298 L 742.9790902918992 389.1862391752093 L 745.3546086849373 393.09988811821086 L 747.6637989396453 397.05908531190187 L 749.9057940971243 401.06270629306414 L 752.0797462684794 405.1096101996781 L 754.1848269433409 409.1986400944703 L 756.2202272928955 413.32862329424677 L 758.1851584673161 417.498371704903 L 760.0788518874838 421.70668216202193 L 761.9005595309034 425.9523367769717 L 763.6495542117018 430.23410328838787 L 765.3251298546122 434.5507354189458 L 766.9266017628462 438.90097323733033 L 768.4533068797518 443.28354352528 L 769.9046040441641 447.6971601496073 L 771.2798742393552 452.14052443909634 L 772.57852083549 456.6123255661475 L 773.7999698254963 461.1112409330748 L 774.9436700542639 465.6359365629287 L 776.0090934410846 470.18506749474517 L 776.9957351952487 474.7572781830861 L 777.9031140247146 479.3512029017604 L 778.7307723377753 483.9654661516145 L 779.4782764376381 488.5986830722537 L 780.1452167098452 493.2494598575788 L 780.7312078024603 497.9163941750233 L 781.2358887989488 502.5980755883465 L 781.6589233836833 507.29308598386467 L 782.0000000000045 511.99999999999983 L 782.258832000777 516.7173854599973 L 782.4351577913718 521.4438038076971 L 782.5287409650186 526.1778105462135 L 782.5393704304688 530.9179556794066 L 782.4668605319134 535.6627841559898 L 782.3110511611012 540.4108363161487 L 782.0718078616082 545.1606483405409 L 781.7490219252082 549.9107527015228 L 781.3426104802986 554.6596786164718 L 780.8525165723374 559.4059525030725 L 780.2787092362512 564.14809843641 L 779.6211835607737 568.88463860774 L 778.8799607446805 573.6140937847855 L 778.0550881448828 578.3349837734296 L 777.1466393163537 583.0458278806434 L 776.1547140438545 587.7451453785126 L 775.0794383654356 592.4314559692259 L 773.9209645876897 597.1032802508622 L 772.679471292736 601.7591401838396 L 771.3551633369152 606.3975595578859 L 769.9482718411812 611.0170644593685 L 768.4590541731777 615.6161837388431 L 766.8877939209852 620.1934494786815 L 765.2348008585335 624.7473974606132 L 763.5004109026746 629.2765676330463 L 761.6849860619129 633.7795045780076 L 759.7889143767895 638.2547579775697 L 757.8126098519294 642.7008830795944 L 755.7565123797539 647.1164411626564 L 753.6210876558628 651.500000000002 L 751.4068270861039 655.8501343223809 L 749.1142476853408 660.1654262796067 L 746.7438919679284 664.4444659007085 L 744.2963278299264 668.6858515525063 L 741.7721484230661 672.8881903964714 L 739.1719720204893 677.0500988437292 L 736.4964418742983 681.1702030080434 L 733.7462260649354 685.2471391566434 L 730.9220173424326 689.2795541587423 L 728.0245329595559 693.266105931607 L 725.0545144968921 697.2054638840236 L 722.0127276799153 701.0963093570166 L 718.8999621880672 704.9373360616839 L 715.7170314559094 708.7272505139917 L 712.4647724663897 712.4647724663898 L 709.1440455362672 716.1486353361126 L 705.7557340937597 719.7775866300096 L 702.3007444484625 723.3503883657747 L 698.7800055536009 726.865817489427 L 695.1944687606674 730.3226662889123 L 691.5451075665217 733.7197428036778 L 687.8329173530112 737.0558712300838 L 684.058915119174 740.3298923225249 L 680.2241392061086 743.5406637901142 L 676.3296490145776 746.6870606888003 L 672.3765247154133 749.76797580879 L 668.3658669528168 752.7823200571357 L 664.2987965406257 755.7290228353612 L 660.1764541516254 758.607032412002 L 656.0000000000031 761.4153162899225 L 651.7706135170213 764.1528615682925 L 647.4894930200106 766.8186752990908 L 643.1578553747579 769.4117848380239 L 638.7769356514033 771.9312381897239 L 634.3479867739347 774.3761043471148 L 629.8722791633694 776.7454736248303 L 625.3511003747401 779.0384579865579 L 620.7857547279829 781.2541913662 L 616.1775629328209 783.3918299827415 L 611.5278617077711 785.4505526487044 L 606.8380033933714 787.429561072086 L 602.1093555597365 789.3280801516718 L 597.3433006085689 791.145358265615 L 592.5412353697285 792.8806675531819 L 587.7045706924888 794.5333041895576 L 582.8347310315844 796.1025886536169 L 577.9331540281878 797.5878659885577 L 573.0012900859317 798.9885060553038 L 568.0406019420926 800.3039037785841 L 563.0525642340781 801.5334793855945 L 558.0386630613408 802.6766786371544 L 553.0003955428363 803.732973051272 L 547.9392693701793 804.7018601190312 L 542.8568023566118 805.5828635127198 L 537.7545219819336 806.3755332861163 L 532.6339649335132 807.0794460668615 L 527.4966766435358 807.6942052408349 L 522.3442108226216 808.2194411284654 L 517.1781289899426 808.6548111529067 L 511.9999999999997 809.0000000000055 L 506.8113995661955 809.2547197700006 L 501.61390978133585 809.4187101208884 L 496.4091186352264 809.4917384033931 L 491.1986195295014 809.4735997874851 L 485.9840107898238 809.3641173803917 L 480.76689517562517 809.1631423360457 L 475.54887938751955 808.870553955925 L 470.3315735725558 808.4862597812316 L 465.11659082744245 808.0101956763684 L 459.9055466999197 807.4423259036679 L 454.7000586884226 806.7826431893391 L 449.50174574018075 806.0311687805876 L 444.31222774792946 805.1879524938827 L 439.13312504537873 804.2530727543356 L 433.96605790158884 803.2266366261597 L 428.8126460144277 802.10877983419 L 423.67450800325946 800.8996667764384 L 418.55326090101437 799.59949052766 L 413.45051964581734 798.2084728339188 L 408.36789657232026 796.7268640981356 L 403.3070009029085 795.1549433566067 L 398.26943823892736 793.4930182464822 L 393.2568100521072 791.7414249642018 L 388.2707131763393 789.9005282148845 L 383.31273929995496 787.9707211526653 L 378.3844744586863 785.9524253119912 L 373.4874985294616 783.8460905298762 L 368.6233847251865 781.6521948591217 L 363.7936990906925 779.3712444725188 L 358.99999999999693 777.0037735580432 L 354.24383765504757 774.5503442050622 L 349.5267535860967 772.0115462815654 L 344.8502801538848 769.3879973024555 L 340.21594005378336 766.6803422889138 L 335.6252458220503 763.88925361887 L 331.079699344373 761.0154308686134 L 326.5807913668504 758.0596006455758 L 322.13000100956367 755.0225164123179 L 317.72879528291116 751.9049583017713 L 313.3786286068555 748.7077329237687 L 309.0809423332324 745.431673162908 L 304.837164271294 742.0776379678061 L 300.6487082166275 738.6465121317852 L 296.516973483615 735.139206065054 L 292.4433444415731 731.5566555584277 L 288.42919005474266 727.8998215386604 L 284.47586342627176 724.1696898154476 L 280.58470134633524 720.3672708201528 L 276.7570238445572 716.4935993363449 L 272.99413374687424 712.5497342222042 L 269.29731623698353 708.5367581248684 L 265.66783842253363 704.4557771868042 L 262.10694890619715 700.3079207442795 L 258.6158773617617 696.0943410180064 L 255.1958341153964 691.816212796057 L 251.8480097322227 687.4747331091237 L 248.57357460833725 683.0711208982235 L 245.37367856841473 678.6066166749233 L 242.2494504690398 674.082482174197 L 239.20199780789653 669.5000000000032 L 236.2324063389433 664.8604732636734 L 233.341739693717 660.1652252152297 L 230.53103900888902 655.4155988677256 L 227.8013225601979 650.6129566147093 L 225.15358540289492 645.7586798409346 L 222.5887990188183 640.854168526416 L 220.10791097022548 635.9008408439514 L 217.71184456049605 630.9001327502134 L 215.40149850183303 625.8534975705439 L 213.1777465900753 620.762405577565 L 211.04143738673167 615.6283435637155 L 208.99339390835797 610.4528144078599 L 207.03441332338195 605.2373366360827 L 205.16526665648263 599.9834439767883 L 203.38669850063644 594.6926849102566 L 201.69942673693015 589.3666222127753 L 200.10414226224003 584.006832495473 L 198.60150872488254 578.6149057380121 L 197.19216226832782 573.192444817259 L 195.87671128307494 567.741065031086 L 194.65573616677597 562.2623936174277 L 193.52978909270456 556.7580692687577 L 192.49939378665204 551.2297416421179 L 191.56504531233594 545.6790708648391 L 190.7272098654056 540.10772703612 L 189.98632457612229 534.5173897246041 L 189.34279732079068 528.9097474620959 L 188.79700654201793 523.2864972335886 L 188.3493010778696 517.6493439637487 L 187.99999999999346 512.0000000000002 L 187.74939246077577 506.34018459238945 L 187.59773754959497 500.6716233703678 L 187.54526415823238 494.9960478166674 L 187.59217085549858 489.3151947384105 L 187.73862577113027 483.63080573563644 L 187.98476648900998 477.94462666739787 L 188.33069994975824 472.25840711558106 L 188.77650236274496 466.57389984663337 L 189.32221912756194 460.8928602713555 L 189.96786476500137 455.21704590291296 L 190.71342285757288 449.5482158132563 L 191.55884599959876 443.8881300881005 L 192.5040557569148 438.23854928064543 L 193.54894263621134 432.60123386418803 L 194.69336606403465 426.97794368382 L 195.93715437547428 421.37043740736897 L 197.28010481255842 415.78047197574585 L 198.72198353237007 410.2098020528899 L 200.26252562489884 404.66017947547334 L 201.90143514064374 399.1333527025274 L 203.6383851279681 393.63106626518453 L 205.47301768021384 388.15506021669694 L 207.40494399258114 382.7070695828969 L 209.4337444287641 377.2888238132928 L 211.5589685973444 371.9020462329551 L 213.78013543793014 366.5484534953813 L 216.09673331703664 361.22975503649394 L 218.50822013368673 355.9476525299665 L 221.01402343471693 350.7038393440405 L 223.61354053977573 345.499999999997 L 226.30613867598026 340.3378096324751 L 229.0911551222104 335.2189334517992 L 231.9678973630169 330.14502620847907 L 234.93564325209957 325.1177316600722 L 237.99364118532662 320.13868204057104 L 241.1411102832618 315.2094975324761 L 244.3772405831462 310.33178574174497 L 247.70119324030003 305.5071411757698 L 251.11210073888935 300.73714472456527 L 254.60906711201767 296.02336314531874 L 258.1911681710767 291.3673485504876 L 261.85745174430383 286.7706378996037 L 265.60693792449604 282.2347524949398 L 269.43861932580205 277.76119748122096 L 273.3514613495352 273.3514613495352 L 277.3444024589455 269.0070154455988 L 281.4163544628648 264.7293134825529 L 285.5662028081577 260.5197910584444 L 289.79280688091035 256.379865178542 L 294.0950003162581 252.31093378266144 L 298.4715913167858 248.3143752776441 L 302.9213629794019 244.39154807515172 L 307.4430736306141 240.5437901349198 L 312.03545717009666 236.77241851363692 L 316.6972234224646 233.07872891959244 L 321.4270584971651 229.4639952732361 L 326.2236251563707 225.92946927380962 L 331.08556319078 222.47637997219005 L 336.01148980323046 219.10593335008224 L 340.9999999999958 215.81931190571606 L 346.0496669896754 212.6176742461784 L 351.1590425895502 209.50215468652533 L 356.32665763930555 206.4738628558025 L 361.55102242198564 203.53388331011928 L 366.8306270920665 200.68327515290417 L 372.1639421105365 197.92307166246735 L 377.54941868683835 195.25427992700844 L 382.98548922755714 192.67788048719166 L 388.470567791732 190.19482698640786 L 394.0030505526422 187.80604582885456 L 399.5813162659415 185.51243584554896 L 405.2037267440156 183.314867968388 L 410.86862733640254 181.2141849123792 L 416.574347416153 179.2112008661469 L 422.31920087197443 177.30670119083078 L 428.1014866060329 175.5014421274774 L 433.91948903724307 173.79615051303756 L 439.77147860990874 172.1915235050687 L 445.6557123075735 170.68822831524005 L 451.5704341719073 169.2869019517442 L 457.5138758264864 167.98815097070616 L 463.48425700531976 166.79255123668128 L 469.4797860859436 165.70064769233528 L 475.49866062693474 164.71295413739148 L 481.5390679096925 163.8299530169275 L 487.5991854843038 163.05209521910604 L 493.6771817193452 162.37979988241614 L 499.7712163554432 161.8134542125013 L 505.87944106244396 161.35341330864605 L 512.0000000000003 160.99999999999244 L 518.1310303814178 160.75350469155217 L 524.2706630405992 160.61418522007835 L 530.4170230018927 160.5822667198579 L 536.5682300526814 160.65794149848233 L 542.7223993185498 160.84136892265207 L 548.8776418408282 161.13267531406552 L 555.0320651563586 161.5319538554416 L 561.183773879288 162.03926450672145 L 567.3308702847303 162.65463393149213 L 573.4714548940949 163.37805543367085 L 579.6036270619111 164.20948890448506 L 585.7254855639785 165.1488607797849 L 591.8351291866397 166.1960640077126 L 597.9306573170038 167.35095802675858 L 604.0101705339478 168.61336875422865 L 610.0717711996908 169.98308858513883 L 616.1135640517689 171.45987640155568 L 622.1336567952334 173.04345759239976 L 628.1301606948696 174.73352408371608 L 634.1011911672665 176.52973437942347 L 640.0448683725383 178.43171361254247 L 645.9593178055325 180.43905360690934 L 651.8426708863144 182.5513129493645 L 657.6930655497547 184.76801707241316 L 663.5086468340436 187.08865834735366 L 669.2875674679248 189.512696187852 L 675.0279884564748 192.03955716395006 L 680.7280796652525 194.6686351264945 L 686.3860204026116 197.39929134195268 L 692.0000000000041 200.23085463759531 L 697.5682183900964 203.16262155702196 L 703.0888866824973 206.19385652598572 L 708.5602277369278 209.32379202848995 L 713.980476733638 212.55162879311223 L 719.3478817409073 215.8765359895226 L 724.6607042794217 219.29765143513777 L 729.9172198833614 222.81408181186885 L 735.1157186580231 226.42490289291737 L 740.2545058337814 230.12915977955072 L 745.3319023162189 233.92586714780487 L 750.3462452322563 237.81400950506065 L 755.2958884720856 241.79254145641295 L 760.1792032267488 245.86038798077806 L 764.9945785211722 250.01644471665725 L 769.7404217425019 254.25957825749725 L 774.4151591635459 258.58862645655233 L 779.0172364611649 263.0023987411762 L 783.5451192294455 267.4996764364674 L 787.997293487474 272.0792130981664 L 792.3722661815522 276.7397348547213 L 796.6685656816944 281.47994075843906 L 800.8847422722309 286.298503145609 L 805.0193686363583 291.1940680055086 L 809.0710403344872 296.1652553581988 L 813.0383762762108 301.2106596409853 L 816.9200191857512 306.3288501034549 L 820.7146360607173 311.5183712109639 L 824.4209186240339 316.7777430564824 L 828.037583768876 322.10546178065897 L 831.5633739964649 327.4999999999958 L 834.9970578465859 332.9598072430233 L 838.337430320667 338.4833103943312 L 841.5833132972846 344.0689141463379 L 844.7335559399589 349.7150014586795 L 847.7870350970866 355.4199340250678 L 850.742655693884 361.18205274749 L 853.5993511162081 366.999678217627 L 856.3560835861123 372.8711112053265 L 859.0118445290177 378.7946331540091 L 861.5656549323658 384.76850668284817 L 864.0165656956333 390.7909760955973 L 866.3636579715824 396.86026789589226 L 868.6060434986239 402.97459130888893 L 870.7428649241886 409.1321388090931 L 872.7732961189752 415.33108665420673 L 874.6965424819757 421.5695954248422 L 876.5118412361646 427.84581056995785 L 878.218461714745 434.15786295782834 L 879.8157056378479 440.50386943240716 L 881.3029073795863 446.88193337489935 L 882.6794342253635 453.29014527039936 L 883.9446866193423 459.7265832793985 L 885.0980984019814 466.18931381400387 L 886.1391370375528 472.67639211870727 L 887.0673038315508 479.1858628555063 L 887.8821341379103 485.7157606932129 L 888.5831975559583 492.26411090078494 L 889.1700981170153 498.8289299444763 L 889.6424744605775 505.4082260886379 L 890.0000000000086 511.9999999999996 L 890.2423830776714 518.6022453552238 L 890.3693671094383 525.2129494515673 L 890.3807307185166 531.8300938204516 L 890.276287858534 538.4516548437723 L 890.055887925826 545.0756043727373 L 889.7194158608788 551.6999103490556 L 889.2667922388752 558.3225374282971 L 888.697973349302 564.9414476052104 L 888.0129512645775 571.5546008408172 L 887.21175389766 578.1599556911016 L 886.2944450486027 584.7554699370787 L 885.2611244400288 591.3391012160589 L 884.1119277414899 597.9088076539236 L 882.8470265826945 604.4625484981943 L 881.466628555577 610.9982847517166 L 879.970977205197 617.5139798067495 L 878.3603520094475 624.0076000792824 L 876.6350683475702 630.4771156433578 L 874.7954774574662 636.9205008652137 L 872.8419663817973 643.3357350370593 L 870.7749579028828 649.7208030102624 L 868.5949104663946 656.073695827763 L 866.3023180938526 662.3924113555246 L 863.8977102839383 668.674954912801 L 861.3816519026366 674.9193399010435 L 858.7547430622267 681.1235884312297 L 856.0176189891371 687.2857319494424 L 853.1709498806971 693.4038118604726 L 850.2154407508123 699.4758801492627 L 847.1518312645858 705.5000000000039 L 843.9808955619355 711.4742464126689 L 840.7034420702383 717.3967068167949 L 837.3203133060377 723.2654816823334 L 833.8323856658744 729.0786851273493 L 830.2405692062806 734.8344455223865 L 826.5458074129871 740.5309060913186 L 822.7490769594093 746.1662255084667 L 818.8513874544645 751.738578491817 L 814.8537811797887 757.2461563921272 L 810.7573328164088 762.6871677777556 L 806.5631491609546 768.0598390150012 L 802.272368831477 773.3624148437759 L 797.8861619629408 778.5931589484364 L 793.4057298924866 783.7503545235663 L 788.8323048345399 788.8323048345397 L 784.1671495458418 793.8373337726898 L 779.4115569805115 798.7637864048838 L 774.566849935222 803.6100295173363 L 769.6343806845784 808.3744521534893 L 764.6155306068165 813.055466145765 L 759.5117097999066 817.6515066410338 L 754.3243566881849 822.1610326196128 L 749.0549376195979 826.5825274076356 L 743.7049464536981 830.914499182612 L 738.2759041404931 835.1554814720148 L 732.7693582902565 839.3040336447377 L 727.1868827344418 843.358741395245 L 721.5300770778142 847.3182172202587 L 715.8005662419137 851.1811008878335 L 710.0000000000053 854.9460598986452 L 704.1300525036278 858.6117899393507 L 698.192421800889 862.1770153278585 L 692.188829346631 865.6404894503712 L 686.1210195046255 869.0009951900377 L 679.9907590419322 872.2573453470767 L 673.7998366155578 875.4083830502349 L 667.5500622515832 878.4529821594252 L 661.243266816903 881.3900476594167 L 654.8813014837151 884.2185160444428 L 648.4660371869446 886.9373556935864 L 641.9993640747457 889.5455672368162 L 635.4831909522322 892.0421839115522 L 628.919444718626 894.4262719096266 L 622.3100697979655 896.6969307145243 L 615.6570275635622 898.853293428781 L 608.9622957563498 900.8945270914284 L 602.2278678973262 902.8198329853672 L 595.4557526942507 904.6284469345588 L 588.6479734427604 906.3196395909358 L 581.8065674221073 907.8927167109171 L 574.9335852856864 909.3470194214333 L 568.0310904465241 910.6819244753656 L 561.1011584579346 911.8968444962982 L 554.1458763895188 912.9912282124974 L 547.1673421986812 913.9645606800289 L 540.1676640978793 914.8163634949265 L 533.1489599177739 915.5461949943328 L 526.113356466492 916.1536504465319 L 519.0629888851695 916.638362229801 L 511.9999999999997 917.0000000000095 L 504.92653967096896 917.2382708468949 L 497.84476413746586 917.3529194389548 L 490.7568353609882 917.3437281568911 L 483.66492036513563 917.2105172155502 L 476.5711905730766 916.9531447743043 L 469.477821142717 916.5715070358232 L 462.38699029976317 916.0655383331919 L 455.30087866886834 915.4352112053255 L 448.22166860309716 914.6805364606473 L 441.1515435118905 913.8015632289905 L 434.09268718775513 912.7983790016908 L 427.0472831318622 911.6711096598426 L 420.0175138787911 910.4199194906921 L 413.0055603206137 909.0450111921473 L 406.01360103051576 907.546625865383 L 399.0438115861906 905.9250429955323 L 392.09836389320276 904.1805804204503 L 385.179425508519 902.3135942875405 L 378.2891589644434 900.324478998649 L 371.42972109314667 898.2136671430176 L 364.6032623520148 895.9816294183083 L 357.8119261500076 893.6288745396992 L 351.05784817526404 891.1559491370691 L 344.3431557241513 888.5634376402892 L 337.66996703195787 885.8519621526273 L 331.04039060546415 883.022182312305 L 324.45652455758875 880.0747951422236 L 317.92045594430857 877.0105348878894 L 311.43426010408507 873.8301728435765 L 304.999999999995 870.5345171667661 L 298.61972556475973 867.1244126808938 L 292.29547304890866 863.6007406664631 L 286.0292643722597 859.9644186405646 L 279.8231064789406 856.2164001248618 L 273.6789906961352 852.3576744020847 L 267.5988920967835 848.3892662611111 L 261.5847688664268 844.3122357306867 L 255.6385616743902 840.1276778018473 L 249.76219304952605 835.8367221391272 L 243.95756676070664 831.4405327806217 L 238.22656720225507 826.9403078269706 L 232.5710587845337 822.3372791193669 L 226.99288532987492 817.6327119066586 L 221.49386947404054 812.8279045016315 L 216.07581207342326 807.9241879265778 L 210.74049161816544 802.922925548235 L 205.48966365139836 797.8255127022003 L 200.32506019477376 792.6333763069124 L 195.24838918049466 787.3479744673223 L 190.2613338900215 781.9707960683531 L 185.36555239962757 776.5033603582535 L 180.56267703300438 770.9472165219778 L 175.8543138210863 765.3039432447033 L 171.24204196926416 759.575148265596 L 166.7274133321821 753.7624679219725 L 162.31195189627488 747.8675666839666 L 157.99715327022807 741.8921366798488 L 153.7844841835174 735.8378972121119 L 149.6753819932082 729.706594264485 L 145.67125419917363 723.5000000000053 L 141.77347796788507 717.21991225028 L 137.98339966494927 710.8681539961078 L 134.3023343965417 704.4465728395986 L 130.7315655598843 697.9570404679316 L 127.2723444029325 691.4014521089308 L 123.92588959341361 684.7817259786041 L 120.69338679735824 678.0998027207947 L 117.57598826727934 671.3576448391336 L 114.5748124401315 664.5572361214379 L 111.6909435451933 657.7005810567387 L 108.92543122200169 650.78970424509 L 106.27929014847751 643.8266498003555 L 103.75349967937024 636.8134807461395 L 101.34900349514032 629.7522784050255 L 99.06670926141311 622.6451417813299 L 96.90748829911854 615.4941869375405 L 94.87217526543071 608.3015463646115 L 92.96156784562726 601.0693683463297 L 91.17642645597613 593.7998163179267 L 89.51747395775243 586.4950682191153 L 87.98539538249707 579.1573158417737 L 86.58083766861091 571.7887641724453 L 85.30440940938519 564.3916307298745 L 84.15668061255838 556.9681448977464 L 83.138182471493 549.5205472528675 L 82.24940714805717 542.0510888889701 L 81.49080756729262 534.5620307363342 L 80.86279722395147 527.0556428774588 L 80.36575000097525 519.5342038589755 L 79.99999999998937 512.0000000000005 L 79.76584138388142 504.4553246971631 L 79.66352823152852 496.9024777264976 L 79.69327440473427 489.3437645424294 L 79.85525342743341 481.781495574045 L 80.14959837721773 474.217985518889 L 80.57640178923236 466.655552634491 L 81.13571557249139 459.09651802782486 L 81.82755093865131 451.5432049429457 L 82.65187834328299 443.99793804701005 L 83.60862743967886 436.463042714884 L 84.69768704522141 428.9408443125875 L 85.91890512034377 421.4336674797818 L 87.27208876010536 413.9438354115073 L 88.75700419839961 406.47366913942324 L 90.37337682481132 399.02548681274675 L 92.1208912141318 391.60160297913205 L 93.99919116854664 384.2043278656894 L 96.00787977248962 376.8359666603944 L 98.14651946016869 369.4988187940992 L 100.4146320957617 362.195177223354 L 102.8116990662665 354.92732771429064 L 105.33716138699697 347.69754812777694 L 107.99041981971368 340.508107706054 L 110.77083500335993 333.3612663611036 L 113.67772759738244 326.2592739649579 L 116.71037843761638 319.20436964215935 L 119.86802870468915 312.19878106462124 L 123.14988010491896 305.2447237490884 L 126.55509506365854 298.3444003574342 L 130.0827969310527 291.49999999999517 L 133.7320702001486 284.71369754218716 L 137.50196073731286 277.987652914611 L 141.39147602490755 271.3240104268541 L 145.3995854161517 264.72489808522926 L 149.5252204021121 258.1924269146558 L 153.76727489076404 251.7286902848868 L 158.12460549803512 245.33576324132156 L 162.59603185077083 239.0157018405962 L 167.18033690153322 232.77054249118044 L 171.87626725516475 226.6023012991701 L 176.68253350701417 220.51297341951016 L 181.59781059274212 214.5045324128444 L 186.6207381496224 208.57892960818737 L 191.74992088922477 202.73809347164638 L 196.98392898138513 196.9839289813853 L 202.32129844937083 191.3183170090217 L 207.76053157611216 185.74311370767953 L 213.30009732139825 180.26014990688293 L 218.9384317499327 174.87123051447958 L 224.67393847010902 169.57813392580886 L 230.5049890834008 164.3826114402881 L 236.4299236442282 159.28638668562263 L 242.44705113019018 154.29115504980905 L 248.55464992250717 149.39858312113932 L 254.75096829654922 144.61030813637808 L 261.034224922322 139.92793743728834 L 267.40260937474557 135.35304793570037 L 273.85428265359167 130.88718558729266 L 280.38737771294234 126.53186487425069 L 286.9999999999948 122.28856829699254 L 293.690228003069 118.15874587512013 L 300.45611380867194 114.14381465775767 L 307.2956836674324 110.24515824345525 L 314.20693856876346 106.46412630980558 L 321.1878548240691 102.80203415294233 L 328.23638465834813 99.26016223706284 L 335.3504568099952 95.8397557541411 L 342.52797713863697 92.54202419397484 L 349.76682924083786 89.36814092470638 L 357.06487507346856 86.31924278397258 L 364.4199555845671 83.39642968081893 L 371.8298913515198 80.6007642085076 L 379.29248322634544 77.93327126836749 L 386.8055129879159 75.39493770480453 L 394.366744000901 72.98671195160745 L 401.9739218812675 70.70950368966584 L 409.6247751681047 68.56418351622818 L 417.31701600158976 66.55158262581375 L 425.04834080690557 64.67249250288836 L 432.81643098387815 62.92766462642169 L 440.6189536021407 61.317810186427266 L 448.45356210163186 59.84359981258763 L 456.3178969981872 58.505663315068375 L 464.20958659402766 57.30458943761391 L 472.1262476929449 56.2409256230149 L 480.06548631993763 55.31517779104098 L 488.02489844510694 54.52781012891808 L 496.0020707115728 53.87924489443492 L 503.994581167217 53.36986223175171 L 512.0000000000002 52.99999999998835 L 520.0158902766443 52.76995361465782 L 528.0398086844691 52.679975902011904 L 536.0693062761309 52.73027696635984 L 544.1019292170472 52.92102407041716 L 552.135219535297 53.252341528739464 L 560.1667158737365 53.72431061428807 L 568.193954244115 54.33696947817481 L 576.2144687829754 55.090313082627745 L 584.2257925090755 55.98429314721318 L 592.2254580821241 57.018818108348285 L 600.2109985625787 58.193753092133306 L 608.1799481722971 59.508919900529804 L 616.1298430557781 60.96409701090323 L 624.0582220417688 62.55901958894691 L 631.9626274050208 64.29337951500526 L 639.840605627928 66.16682542379647 L 647.6897081618256 68.1789627575439 L 655.5074921877288 70.32935383251919 L 663.2915213762435 72.61751791898593 L 671.0393666464402 75.04293133454149 L 678.7486069234321 77.60502755084076 L 686.4168298944522 80.30319731369241 L 694.0416327631575 83.13678877649716 L 701.6206230019427 86.10510764700848 L 709.1514191020407 89.20741734739164 L 716.6316513211469 92.44293918753829 L 724.0589624283476 95.81085255160264 L 731.4310084461304 99.31029509772668 L 738.7454593892181 102.94036297089434 L 746.000000000006 106.70011102887236 L 753.1923304803842 110.58855308119024 L 760.3201672196853 114.60466214108806 L 767.3812435185529 118.7473706903807 L 774.3733103084808 123.01557095716424 L 781.2941368668223 127.40811520630797 L 788.1415115270112 131.9238160426401 L 794.913242383785 136.56144672675782 L 801.6071579931966 141.319741503388 L 808.2211080671664 146.19739594219465 L 814.7529641623678 151.193067290952 L 821.2006203632336 156.305374840998 L 827.5619939588461 161.5329003048522 L 833.8350261135014 166.8741882059046 L 840.0176825307467 172.32774628007985 L 846.1079541106516 177.892045889347 L 852.1038576001231 183.56552244697775 L 858.0034362360382 189.3465758544234 L 863.8047603810069 195.2335709497077 L 869.5059281515365 201.22483796718888 L 875.1050660384049 207.31867300857232 L 880.6003295190503 213.51333852505383 L 885.9899036617602 219.8070638104354 L 891.2720037214692 226.19804550508485 L 896.4448757269846 232.68444811060908 L 901.506797059425 239.26440451506966 L 906.456077021699 245.93601652861184 L 911.2910573988265 252.69735542933853 L 916.0101130089313 259.5464625192938 L 920.6116522447076 266.48134969037096 L 925.0941176051878 273.4999999999936 L 929.4559862176441 280.6003682564167 L 933.6957703494346 287.7803816134531 L 937.812017909632 295.03794017446484 L 941.8033129402725 302.3709176054572 L 945.6682760970484 309.77716175707053 L 949.4055651192887 317.2544952953018 L 953.0138752890754 324.8007163407836 L 956.491939879329 332.41359911640615 L 959.8385305907193 340.0908946031151 L 963.0524579772475 347.8303312036744 L 966.1325718603633 355.6296154142227 L 969.0777617314627 363.48643250339666 L 971.8869571426357 371.39844719883206 L 974.5591280855308 379.3633043808558 L 977.0932853581985 387.3786297831334 L 979.4884809197872 395.44203070007694 L 981.743808232974 403.55109670081924 L 983.8584025940002 411.70340034951084 L 985.8314414501997 419.8964979317395 L 987.6621447049088 428.12793018687 L 989.3497750096424 436.39522304605345 L 990.8936380434359 444.69588837571075 L 992.2930827792482 453.02742472624726 L 993.5475017373304 461.3873180858 L 994.6563312254633 469.77304263875885 L 995.6190515659754 478.182061528847 L 996.4351873094564 486.6118276265465 L 997.1043074350818 495.05978430060605 L 997.6260255374718 503.5233661934111 L 998.0000000000127 511.99999999999943 L 998.2259341545657 520.4871052504518 L 998.3035764275047 528.9820950954374 L 998.2327204720148 537.4823770946896 L 998.0132052865991 545.9853540081377 L 997.6449153197386 554.4884245894847 L 997.1277805606564 562.9889843819624 L 996.4617766161421 571.4844265160532 L 995.6469247733955 579.9721425088981 L 994.6832920488564 588.4495230651627 L 993.5709912229825 596.9139588791305 L 992.3101808609545 605.3628414377463 L 990.9010653192838 613.7935638243777 L 989.3438947382994 622.2035215230618 L 987.6389650205062 630.5901132229592 L 985.7866177948003 638.9507416227899 L 983.7872403665394 647.2828142349863 L 981.6412656534593 655.5837441893389 L 979.3491721074506 663.8509510358534 L 976.9114836221963 672.0818615465879 L 974.3287694266794 680.2739105162327 L 971.6016439645844 688.4245415611563 L 968.7307667596115 696.531207916683 L 965.71684226672 704.5913732323675 L 962.5606197093423 712.6025123649904 L 959.2628929025984 720.5621121690407 L 955.8245000625406 728.4676722844516 L 952.2463236014846 736.316705921315 L 948.5292899094649 744.1067406413506 L 944.6743691218707 751.835319135869 L 940.6825748733088 759.5000000000057 L 936.5549640377673 767.0983585029568 L 932.2926364551358 774.6279873539831 L 927.896734644147 782.0864974639584 L 923.3684435018233 789.4715187021908 L 918.7089899894952 796.7807006483018 L 913.9196428054838 804.0117133389092 L 909.0017120445204 811.1622480088902 L 903.9565488439938 818.2300178269905 L 898.7855450171437 825.2127586255134 L 893.4901326732618 832.1082296239042 L 888.0717838250171 838.9142141459786 L 882.5320099830376 845.6285203305365 L 876.8723617378143 852.2489818351889 L 871.0944283290639 858.7734585331409 L 865.1998372026912 865.1998372026885 L 859.1902535554166 871.5260322092669 L 853.0673798672642 877.7499861797571 L 846.8329554219829 883.8696706688967 L 840.4887558155561 889.8830868175515 L 834.0365924529642 895.7882660026186 L 827.4783120332932 901.5832704783888 L 820.8157960233586 907.2661940091419 L 814.0509601200204 912.8351624927474 L 807.1857537012891 918.2883345751085 L 800.2221592664085 923.623902255229 L 793.1621918650981 928.8400914806865 L 786.0078985160685 933.9351627333533 L 778.7613576150026 938.9074116051561 L 771.4246783322003 943.755169363666 L 764.0000000000077 948.476803507368 L 756.4894914902343 953.070718310409 L 748.8953505817657 957.535355356627 L 741.2198033185042 961.8691940627184 L 733.4651033578476 966.0707521903513 L 725.633531309928 970.1385863470393 L 717.7273940677461 974.0712924756394 L 709.7490241284264 977.8675063322926 L 701.7007789058248 981.5259039526329 L 693.5850400346092 985.0452021061444 L 685.4042126661182 988.4241587384683 L 641.9993640747484 889.5455672368195" fill-opacity="1" stroke-opacity="1" stroke-linecap="round" stroke-miterlimit="10" stroke-dasharray=""/><path fill="rgb(255,255,255)" stroke="rgb(0,0,0)" paint-order="fill stroke markers" d=" M 642.0000000000005 511.99999999999994 C 642.0000000000005 494.32688800639994 656.3268880064005 479.99999999999994 674.0000000000005 479.99999999999994 C 691.6731119936004 479.99999999999994 706.0000000000005 494.32688800639994 706.0000000000005 511.99999999999994 C 706.0000000000005 529.6731119936 691.6731119936004 544 674.0000000000005 544 C 656.3268880064005 544 642.0000000000005 529.6731119936 642.0000000000005 511.99999999999994" fill-opacity="1" stroke-opacity="1" stroke-linecap="round" stroke-miterlimit="10" stroke-dasharray=""/><path fill="rgb(255,255,255)" stroke="rgb(0,0,0)" paint-order="fill stroke markers" d=" M 604.0972400982397 636.0972400982398 C 604.0972400982397 618.4241281046399 618.4241281046397 604.0972400982398 636.0972400982397 604.0972400982398 C 653.7703520918396 604.0972400982398 668.0972400982397 618.4241281046399 668.0972400982397 636.0972400982398 C 668.0972400982397 653.7703520918398 653.7703520918396 668.0972400982398 636.0972400982397 668.0972400982398 C 618.4241281046397 668.0972400982398 604.0972400982397 653.7703520918398 604.0972400982397 636.0972400982398" fill-opacity="1" stroke-opacity="1" stroke-linecap="round" stroke-miterlimit="10" stroke-dasharray=""/><path fill="rgb(255,255,255)" stroke="rgb(0,0,0)" paint-order="fill stroke markers" d=" M 480.0000000000001 701.0000000000015 C 480.0000000000001 683.3268880064015 494.3268880064001 669.0000000000015 512.0000000000001 669.0000000000015 C 529.6731119936001 669.0000000000015 544.0000000000001 683.3268880064015 544.0000000000001 701.0000000000015 C 544.0000000000001 718.6731119936014 529.6731119936001 733.0000000000015 512.0000000000001 733.0000000000015 C 494.3268880064001 733.0000000000015 480.0000000000001 718.6731119936014 480.0000000000001 701.0000000000015" fill-opacity="1" stroke-opacity="1" stroke-linecap="round" stroke-miterlimit="10" stroke-dasharray=""/><path fill="rgb(255,255,255)" stroke="rgb(0,0,0)" paint-order="fill stroke markers" d=" M 336.8108768097227 655.1891231902772 C 336.8108768097227 637.5160111966773 351.1377648161227 623.1891231902772 368.8108768097227 623.1891231902772 C 386.4839888033227 623.1891231902772 400.8108768097227 637.5160111966773 400.8108768097227 655.1891231902772 C 400.8108768097227 672.8622351838771 386.4839888033227 687.1891231902772 368.8108768097227 687.1891231902772 C 351.1377648161227 687.1891231902772 336.8108768097227 672.8622351838771 336.8108768097227 655.1891231902772" fill-opacity="1" stroke-opacity="1" stroke-linecap="round" stroke-miterlimit="10" stroke-dasharray=""/><path fill="rgb(255,255,255)" stroke="rgb(0,0,0)" paint-order="fill stroke markers" d=" M 263.9999999999975 512.0000000000001 C 263.9999999999975 494.3268880064001 278.3268880063975 480.0000000000001 295.9999999999975 480.0000000000001 C 313.6731119935975 480.0000000000001 327.9999999999975 494.3268880064001 327.9999999999975 512.0000000000001 C 327.9999999999975 529.6731119936001 313.6731119935975 544.0000000000001 295.9999999999975 544.0000000000001 C 278.3268880063975 544.0000000000001 263.9999999999975 529.6731119936001 263.9999999999975 512.0000000000001" fill-opacity="1" stroke-opacity="1" stroke-linecap="round" stroke-miterlimit="10" stroke-dasharray=""/><path fill="rgb(255,255,255)" stroke="rgb(0,0,0)" paint-order="fill stroke markers" d=" M 317.7189937176853 349.7189937176852 C 317.7189937176853 332.0458817240852 332.0458817240853 317.7189937176852 349.7189937176853 317.7189937176852 C 367.3921057112853 317.7189937176852 381.7189937176853 332.0458817240852 381.7189937176853 349.7189937176852 C 381.7189937176853 367.3921057112852 367.3921057112853 381.7189937176852 349.7189937176853 381.7189937176852 C 332.0458817240853 381.7189937176852 317.7189937176853 367.3921057112852 317.7189937176853 349.7189937176852" fill-opacity="1" stroke-opacity="1" stroke-linecap="round" stroke-miterlimit="10" stroke-dasharray=""/><path fill="rgb(255,255,255)" stroke="rgb(0,0,0)" paint-order="fill stroke markers" d=" M 480.0000000000002 268.9999999999965 C 480.0000000000002 251.32688800639647 494.3268880064002 236.99999999999648 512.0000000000002 236.99999999999648 C 529.6731119936002 236.99999999999648 544.0000000000002 251.32688800639647 544.0000000000002 268.9999999999965 C 544.0000000000002 286.6731119935965 529.6731119936002 300.9999999999965 512.0000000000002 300.9999999999965 C 494.3268880064002 300.9999999999965 480.0000000000002 286.6731119935965 480.0000000000002 268.9999999999965" fill-opacity="1" stroke-opacity="1" stroke-linecap="round" stroke-miterlimit="10" stroke-dasharray=""/><path fill="rgb(255,255,255)" stroke="rgb(0,0,0)" paint-order="fill stroke markers" d=" M 661.372889374352 330.62711062564745 C 661.372889374352 312.95399863204744 675.699777380752 298.62711062564745 693.372889374352 298.62711062564745 C 711.0460013679519 298.62711062564745 725.372889374352 312.95399863204744 725.372889374352 330.62711062564745 C 725.372889374352 348.30022261924745 711.0460013679519 362.62711062564745 693.372889374352 362.62711062564745 C 675.699777380752 362.62711062564745 661.372889374352 348.30022261924745 661.372889374352 330.62711062564745" fill-opacity="1" stroke-opacity="1" stroke-linecap="round" stroke-miterlimit="10" stroke-dasharray=""/><path fill="rgb(255,255,255)" stroke="rgb(0,0,0)" paint-order="fill stroke markers" d=" M 750.0000000000045 511.99999999999983 C 750.0000000000045 494.3268880063998 764.3268880064046 479.99999999999983 782.0000000000045 479.99999999999983 C 799.6731119936045 479.99999999999983 814.0000000000045 494.3268880063998 814.0000000000045 511.99999999999983 C 814.0000000000045 529.6731119935998 799.6731119936045 543.9999999999998 782.0000000000045 543.9999999999998 C 764.3268880064046 543.9999999999998 750.0000000000045 529.6731119935998 750.0000000000045 511.99999999999983" fill-opacity="1" stroke-opacity="1" stroke-linecap="round" stroke-miterlimit="10" stroke-dasharray=""/><path fill="rgb(255,255,255)" stroke="rgb(0,0,0)" paint-order="fill stroke markers" d=" M 680.4647724663897 712.4647724663898 C 680.4647724663897 694.7916604727899 694.7916604727898 680.4647724663898 712.4647724663897 680.4647724663898 C 730.1378844599897 680.4647724663898 744.4647724663897 694.7916604727899 744.4647724663897 712.4647724663898 C 744.4647724663897 730.1378844599898 730.1378844599897 744.4647724663898 712.4647724663897 744.4647724663898 C 694.7916604727898 744.4647724663898 680.4647724663897 730.1378844599898 680.4647724663897 712.4647724663898" fill-opacity="1" stroke-opacity="1" stroke-linecap="round" stroke-miterlimit="10" stroke-dasharray=""/><path fill="rgb(255,255,255)" stroke="rgb(0,0,0)" paint-order="fill stroke markers" d=" M 479.9999999999997 809.0000000000055 C 479.9999999999997 791.3268880064055 494.3268880063997 777.0000000000055 511.9999999999997 777.0000000000055 C 529.6731119935997 777.0000000000055 543.9999999999998 791.3268880064055 543.9999999999998 809.0000000000055 C 543.9999999999998 826.6731119936054 529.6731119935997 841.0000000000055 511.9999999999997 841.0000000000055 C 494.3268880063997 841.0000000000055 479.9999999999997 826.6731119936054 479.9999999999997 809.0000000000055" fill-opacity="1" stroke-opacity="1" stroke-linecap="round" stroke-miterlimit="10" stroke-dasharray=""/><path fill="rgb(255,255,255)" stroke="rgb(0,0,0)" paint-order="fill stroke markers" d=" M 260.4433444415731 731.5566555584277 C 260.4433444415731 713.8835435648277 274.7702324479731 699.5566555584277 292.4433444415731 699.5566555584277 C 310.1164564351731 699.5566555584277 324.4433444415731 713.8835435648277 324.4433444415731 731.5566555584277 C 324.4433444415731 749.2297675520276 310.1164564351731 763.5566555584277 292.4433444415731 763.5566555584277 C 274.7702324479731 763.5566555584277 260.4433444415731 749.2297675520276 260.4433444415731 731.5566555584277" fill-opacity="1" stroke-opacity="1" stroke-linecap="round" stroke-miterlimit="10" stroke-dasharray=""/><path fill="rgb(255,255,255)" stroke="rgb(0,0,0)" paint-order="fill stroke markers" d=" M 155.99999999999346 512.0000000000002 C 155.99999999999346 494.3268880064002 170.32688800639346 480.0000000000002 187.99999999999346 480.0000000000002 C 205.67311199359347 480.0000000000002 219.99999999999346 494.3268880064002 219.99999999999346 512.0000000000002 C 219.99999999999346 529.6731119936002 205.67311199359347 544.0000000000002 187.99999999999346 544.0000000000002 C 170.32688800639346 544.0000000000002 155.99999999999346 529.6731119936002 155.99999999999346 512.0000000000002" fill-opacity="1" stroke-opacity="1" stroke-linecap="round" stroke-miterlimit="10" stroke-dasharray=""/><path fill="rgb(255,255,255)" stroke="rgb(0,0,0)" paint-order="fill stroke markers" d=" M 241.3514613495352 273.3514613495352 C 241.3514613495352 255.6783493559352 255.6783493559352 241.3514613495352 273.3514613495352 241.3514613495352 C 291.0245733431352 241.3514613495352 305.3514613495352 255.6783493559352 305.3514613495352 273.3514613495352 C 305.3514613495352 291.0245733431352 291.0245733431352 305.3514613495352 273.3514613495352 305.3514613495352 C 255.6783493559352 305.3514613495352 241.3514613495352 291.0245733431352 241.3514613495352 273.3514613495352" fill-opacity="1" stroke-opacity="1" stroke-linecap="round" stroke-miterlimit="10" stroke-dasharray=""/><path fill="rgb(255,255,255)" stroke="rgb(0,0,0)" paint-order="fill stroke markers" d=" M 480.00000000000034 160.99999999999244 C 480.00000000000034 143.32688800639244 494.32688800640034 128.99999999999244 512.0000000000003 128.99999999999244 C 529.6731119936003 128.99999999999244 544.0000000000003 143.32688800639244 544.0000000000003 160.99999999999244 C 544.0000000000003 178.67311199359244 529.6731119936003 192.99999999999244 512.0000000000003 192.99999999999244 C 494.32688800640034 192.99999999999244 480.00000000000034 178.67311199359244 480.00000000000034 160.99999999999244" fill-opacity="1" stroke-opacity="1" stroke-linecap="round" stroke-miterlimit="10" stroke-dasharray=""/><path fill="rgb(255,255,255)" stroke="rgb(0,0,0)" paint-order="fill stroke markers" d=" M 737.7404217425019 254.25957825749725 C 737.7404217425019 236.58646626389725 752.067309748902 222.25957825749725 769.7404217425019 222.25957825749725 C 787.4135337361018 222.25957825749725 801.7404217425019 236.58646626389725 801.7404217425019 254.25957825749725 C 801.7404217425019 271.93269025109726 787.4135337361018 286.25957825749725 769.7404217425019 286.25957825749725 C 752.067309748902 286.25957825749725 737.7404217425019 271.93269025109726 737.7404217425019 254.25957825749725" fill-opacity="1" stroke-opacity="1" stroke-linecap="round" stroke-miterlimit="10" stroke-dasharray=""/><path fill="rgb(255,255,255)" stroke="rgb(0,0,0)" paint-order="fill stroke markers" d=" M 858.0000000000086 511.9999999999996 C 858.0000000000086 494.3268880063996 872.3268880064087 479.9999999999996 890.0000000000086 479.9999999999996 C 907.6731119936086 479.9999999999996 922.0000000000086 494.3268880063996 922.0000000000086 511.9999999999996 C 922.0000000000086 529.6731119935996 907.6731119936086 543.9999999999995 890.0000000000086 543.9999999999995 C 872.3268880064087 543.9999999999995 858.0000000000086 529.6731119935996 858.0000000000086 511.9999999999996" fill-opacity="1" stroke-opacity="1" stroke-linecap="round" stroke-miterlimit="10" stroke-dasharray=""/><path fill="rgb(255,255,255)" stroke="rgb(0,0,0)" paint-order="fill stroke markers" d=" M 756.8323048345399 788.8323048345397 C 756.8323048345399 771.1591928409398 771.1591928409399 756.8323048345397 788.8323048345399 756.8323048345397 C 806.5054168281398 756.8323048345397 820.8323048345399 771.1591928409398 820.8323048345399 788.8323048345397 C 820.8323048345399 806.5054168281397 806.5054168281398 820.8323048345397 788.8323048345399 820.8323048345397 C 771.1591928409399 820.8323048345397 756.8323048345399 806.5054168281397 756.8323048345399 788.8323048345397" fill-opacity="1" stroke-opacity="1" stroke-linecap="round" stroke-miterlimit="10" stroke-dasharray=""/><path fill="rgb(255,255,255)" stroke="rgb(0,0,0)" paint-order="fill stroke markers" d=" M 479.9999999999997 917.0000000000095 C 479.9999999999997 899.3268880064096 494.3268880063997 885.0000000000095 511.9999999999997 885.0000000000095 C 529.6731119935997 885.0000000000095 543.9999999999998 899.3268880064096 543.9999999999998 917.0000000000095 C 543.9999999999998 934.6731119936095 529.6731119935997 949.0000000000095 511.9999999999997 949.0000000000095 C 494.3268880063997 949.0000000000095 479.9999999999997 934.6731119936095 479.9999999999997 917.0000000000095" fill-opacity="1" stroke-opacity="1" stroke-linecap="round" stroke-miterlimit="10" stroke-dasharray=""/><path fill="rgb(255,255,255)" stroke="rgb(0,0,0)" paint-order="fill stroke markers" d=" M 184.07581207342326 807.9241879265778 C 184.07581207342326 790.2510759329779 198.40270007982326 775.9241879265778 216.07581207342326 775.9241879265778 C 233.74892406702327 775.9241879265778 248.07581207342326 790.2510759329779 248.07581207342326 807.9241879265778 C 248.07581207342326 825.5972999201778 233.74892406702327 839.9241879265778 216.07581207342326 839.9241879265778 C 198.40270007982326 839.9241879265778 184.07581207342326 825.5972999201778 184.07581207342326 807.9241879265778" fill-opacity="1" stroke-opacity="1" stroke-linecap="round" stroke-miterlimit="10" stroke-dasharray=""/><path fill="rgb(255,255,255)" stroke="rgb(0,0,0)" paint-order="fill stroke markers" d=" M 47.99999999998937 512.0000000000005 C 47.99999999998937 494.32688800640045 62.32688800638937 480.00000000000045 79.99999999998937 480.00000000000045 C 97.67311199358937 480.00000000000045 111.99999999998937 494.32688800640045 111.99999999998937 512.0000000000005 C 111.99999999998937 529.6731119936004 97.67311199358937 544.0000000000005 79.99999999998937 544.0000000000005 C 62.32688800638937 544.0000000000005 47.99999999998937 529.6731119936004 47.99999999998937 512.0000000000005" fill-opacity="1" stroke-opacity="1" stroke-linecap="round" stroke-miterlimit="10" stroke-dasharray=""/><path fill="rgb(255,255,255)" stroke="rgb(0,0,0)" paint-order="fill stroke markers" d=" M 164.98392898138513 196.9839289813853 C 164.98392898138513 179.3108169877853 179.31081698778513 164.9839289813853 196.98392898138513 164.9839289813853 C 214.65704097498514 164.9839289813853 228.98392898138513 179.3108169877853 228.98392898138513 196.9839289813853 C 228.98392898138513 214.6570409749853 214.65704097498514 228.9839289813853 196.98392898138513 228.9839289813853 C 179.31081698778513 228.9839289813853 164.98392898138513 214.6570409749853 164.98392898138513 196.9839289813853" fill-opacity="1" stroke-opacity="1" stroke-linecap="round" stroke-miterlimit="10" stroke-dasharray=""/><path fill="rgb(255,255,255)" stroke="rgb(0,0,0)" paint-order="fill stroke markers" d=" M 480.0000000000002 52.99999999998835 C 480.0000000000002 35.326888006388344 494.3268880064002 20.999999999988347 512.0000000000002 20.999999999988347 C 529.6731119936002 20.999999999988347 544.0000000000002 35.326888006388344 544.0000000000002 52.99999999998835 C 544.0000000000002 70.67311199358835 529.6731119936002 84.99999999998835 512.0000000000002 84.99999999998835 C 494.3268880064002 84.99999999998835 480.0000000000002 70.67311199358835 480.0000000000002 52.99999999998835" fill-opacity="1" stroke-opacity="1" stroke-linecap="round" stroke-miterlimit="10" stroke-dasharray=""/><path fill="rgb(255,255,255)" stroke="rgb(0,0,0)" paint-order="fill stroke markers" d=" M 814.1079541106516 177.892045889347 C 814.1079541106516 160.218933895747 828.4348421170516 145.892045889347 846.1079541106516 145.892045889347 C 863.7810661042515 145.892045889347 878.1079541106516 160.218933895747 878.1079541106516 177.892045889347 C 878.1079541106516 195.565157882947 863.7810661042515 209.892045889347 846.1079541106516 209.892045889347 C 828.4348421170516 209.892045889347 814.1079541106516 195.565157882947 814.1079541106516 177.892045889347" fill-opacity="1" stroke-opacity="1" stroke-linecap="round" stroke-miterlimit="10" stroke-dasharray=""/><path fill="rgb(255,255,255)" stroke="rgb(0,0,0)" paint-order="fill stroke markers" d=" M 966.0000000000127 511.99999999999943 C 966.0000000000127 494.32688800639943 980.3268880064128 479.99999999999943 998.0000000000127 479.99999999999943 C 1015.6731119936127 479.99999999999943 1030.0000000000127 494.32688800639943 1030.0000000000127 511.99999999999943 C 1030.0000000000127 529.6731119935994 1015.6731119936127 543.9999999999994 998.0000000000127 543.9999999999994 C 980.3268880064128 543.9999999999994 966.0000000000127 529.6731119935994 966.0000000000127 511.99999999999943" fill-opacity="1" stroke-opacity="1" stroke-linecap="round" stroke-miterlimit="10" stroke-dasharray=""/><path fill="rgb(255,255,255)" stroke="rgb(0,0,0)" paint-order="fill stroke markers" d=" M 833.1998372026912 865.1998372026885 C 833.1998372026912 847.5267252090886 847.5267252090913 833.1998372026885 865.1998372026912 833.1998372026885 C 882.8729491962912 833.1998372026885 897.1998372026912 847.5267252090886 897.1998372026912 865.1998372026885 C 897.1998372026912 882.8729491962885 882.8729491962912 897.1998372026885 865.1998372026912 897.1998372026885 C 847.5267252090913 897.1998372026885 833.1998372026912 882.8729491962885 833.1998372026912 865.1998372026885" fill-opacity="1" stroke-opacity="1" stroke-linecap="round" stroke-miterlimit="10" stroke-dasharray=""/></g></svg>