<svg version="1.1" xmlns="http://www.w3.org/2000/svg" xmlns:xlink="http://www.w3.org/1999/xlink" width="900" height="900" viewBox="0 0 900 900"><defs/><g><rect fill="rgb(255,255,255)" stroke="none" x="0" y="0" width="900" height="900" transform="matrix(1 0 0 1 0 0)" fill-opacity="1"/><path fill="none" stroke="rgb(0,0,0)" paint-order="fill stroke markers" d=" M 450.9945218953683 450.1045284632676 L 451.9562952014676 450.4158233816355 L 452.85316954888543 450.92705098312484 L 453.6541818305704 451.6269465723032 L 454.3301270189222 452.5 L 454.8541019662497 453.52671151375483 L 455.2020137783418 454.683914244512 L 455.35304485087084 455.94515860381915 L 455.2900672706323 457.28115294937453 L 455 458.66025403784437 L 454.4741030738338 460.0490000340686 L 453.7082039324994 461.41267819554184 L 452.7028519806309 462.71591880953946 L 451.4633984857471 463.9233065351558 L 450 465 L 448.32754458771757 465.91235032589236 L 446.4655012560981 466.6285092124747 L 444.43769410125094 467.11901729331277 L 442.2720037815598 467.3573636952094 L 440 467.3205080756888 L 437.65650970185806 466.9893568818739 L 435.27912666010513 466.34918616050265 L 432.9076690140199 465.3900039462537 L 430.58359213500125 464.10684605501933 L 428.34936490538905 462.5 L 426.2478181012924 460.5751527199708 L 424.3214740600309 458.3434588481236 L 422.61186717945344 455.82152734289724 L 421.15886503432006 453.031325434762 L 420 450 L 419.16982124358356 446.7596176387027 L 418.6992767765182 443.3468258938317 L 418.61513496225996 439.8024391856267 L 418.93945444015156 436.1709541354228 L 419.6891108675446 432.5 L 420.8753882025019 428.83973091747094 L 422.5036414573364 425.24216756472225 L 424.5730369583634 421.76049663185904 L 427.07637516059356 418.44833721937704 L 430 415.3589838486225 L 433.3237976338922 412.54463623665333 L 437.0212862362522 410.05562631560355 L 441.05979729483636 407.93965316844634 L 445.40074761622327 406.241036603796 L 450 405 L 454.80830931031204 404.2519928130594 L 459.7718494684347 404.0270627655111 L 464.8328157299975 404.3492872178326 L 469.9300955107142 405.23627257551254 L 475 406.69872981077805 L 479.9770478669161 408.74013328687766 L 484.79479153066063 411.3564690751755 L 489.3866757503019 414.5360778629805 L 493.6869176962472 418.25959637620645 L 497.6313972081441 422.5 L 501.15854562798563 427.2227479877552 L 504.21022142882373 432.386031320628 L 506.7325608425607 437.9411219325699 L 508.6767918267281 443.83282066720847 L 510 450 L 510.66583561746467 456.37623625932684 L 510.6451512454959 462.8905248307011 L 509.9165605265947 469.46807064562165 L 508.4669092891264 476.0311451568512 L 506.29165124598853 482.5 L 503.3951216287465 488.7938266513033 L 499.7907033069854 494.8317506260435 L 495.5008812324024 500.5338481324628 L 490.5571824081807 505.82217261187134 L 485 510.62177826491074 L 478.8783016583818 514.8617274926247 L 472.24922359499624 518.4760691732511 L 465.17755342969656 521.4047748535678 L 457.73510628180634 523.5946202572522 L 450 525 L 442.0558367916583 525.5836640479888 L 433.9907998070325 525.3173652565031 L 425.89667443875413 524.182408271022 L 417.86780519701176 522.1700911537655 L 410.00000000000006 519.2820323027552 L 402.38939456430955 515.5303765443707 L 395.1312902785736 510.9378756891463 L 388.3189794853763 505.53784032778526 L 382.04257247250445 499.3739611925678 L 376.38784067832273 492.5 L 371.4350906427363 484.9793513045189 L 367.25808308232166 476.88447851062045 L 363.9230111354251 468.2962287919628 L 361.4875513122237 459.30303323082126 L 360 450.00000000000006 L 359.4985075214871 440.4879098426435 L 360.0104207324899 430.8721244447662 L 361.55174398455074 421.2614195231299 L 364.12672698159554 411.7667555508748 L 367.7275866404783 402.50000000000006 L 372.334368540005 393.5726157799226 L 377.91495192869274 385.0943311831908 L 384.4252005768318 377.17180710321543 L 391.8092600230451 369.90731755688023 L 400 363.3974596215561 L 408.9195990493441 357.73190877809736 L 418.48026657375533 352.9922353378944 L 428.5850958457708 349.250797124418 L 439.12903982016394 346.5697228816996 L 449.99999999999994 345 L 461.08001710637126 344.58067909096303 L 472.24655091750014 345.3382067214828 L 483.3738353924943 347.2858962401234 L 494.33429409526224 350.4235451169565 L 504.9999999999999 354.73720558371167 L 515.2441630044644 360.1991136243808 L 524.9426279121922 366.76777954653187 L 533.9753652789454 374.3882414814489 L 542.2279373587439 382.992481238658 L 549.5929214352104 392.5 L 555.9712730865416 402.81854940320704 L 561.273612406533 413.8450116581311 L 565.4214168865891 425.4664204835044 L 568.3481055488245 437.56111287114913 L 570 449.99999999999994 L 570.337149339561 462.64794405538606 L 569.3340072895244 475.3652262797665 L 566.9799515043039 488.0090903081183 L 563.2796367476824 500.43534374139944 L 558.2531754730549 512.4999999999999 L 551.9361412912434 524.0609417888516 L 544.379392835629 534.979587007575 L 535.6487176139337 545.1225376611065 L 525.8242975457291 554.3631922743682 L 515 562.5833024919771 L 503.28250024293015 569.6744549511806 L 490.7902432574929 575.5394601509603 L 477.652254878762 580.0936308975961 L 464.0068140778655 583.2659339793486 L 450.00000000000006 585 L 435.78412899559913 585.2549777700851 L 421.5160983579669 584.0062213005314 L 407.35565477625755 581.2457992487313 L 393.46360661246354 576.9828186123215 L 379.99999999999994 571.2435565298214 L 367.12227942676134 564.0713962068676 L 354.9834538970421 555.52656521779 L 343.7302899567326 545.6856767093167 L 333.50155281000764 534.6410763301162 L 324.4263164512564 522.5 L 316.6223631841805 509.38354988906724 L 310.1946921046124 495.4254981731171 L 305.23415509139676 480.7709302410284 L 301.81623759012723 465.5747410268803 L 300 450.0000000000001 L 299.8271937993907 434.2162020465843 L 301.32156468846154 418.3974229957005 L 304.4883530068414 402.7203998606334 L 309.31399952303957 387.3625569663265 L 315.7660624134119 372.50000000000017 L 323.79334887750815 358.3055006423743 L 333.32626240004913 344.94649480165924 L 344.2773641953005 332.58311757457165 L 356.5421448854969 321.36629789438325 L 369.9999999999998 311.43593539449 L 384.51540046479596 302.91918131954134 L 399.939246911259 295.928844360185 L 416.1103943967052 290.5619410803897 L 432.8573320241049 286.89840915960315 L 450.00000000000017 285 L 467.3517249024302 284.9093653688666 L 484.7212523665656 286.64935067745444 L 501.91485505499105 290.2225052624142 L 518.7384926798107 295.6108176584007 L 535.0000000000001 302.77568135664546 L 550.511278142013 311.6580939618841 L 565.0904642937234 322.179090017888 L 578.5640548075891 334.2404050999174 L 590.7689570212408 347.72536610110956 L 601.5544456622767 362.5 L 610.7840005450978 378.4143508186593 L 618.3370033842423 395.3039919956345 L 624.1102729306174 412.9917190344385 L 628.0194192709209 431.2894050750898 L 630 449.9999999999999 L 630.0084630616575 468.9196518514452 L 628.0228633335526 487.83992772883227 L 624.043342482013 506.55010997061555 L 618.0923642062387 524.8395423259469 L 610.2146997001213 542.4999999999998 L 600.4771609537403 559.3280569263999 L 588.9680823642727 575.1274233891064 L 575.7965539954653 589.7112271897502 L 561.0914126832772 602.9042119368652 L 545.0000000000003 614.5448267190432 L 527.686698827478 624.4871824097366 L 509.3312629199901 632.6028511286695 L 490.1269563278276 638.7824869416245 L 470.2785218739247 642.937247701445 L 449.99999999999983 645 L 429.5124211995403 644.9262914921816 L 409.0413969089017 642.6950773445598 L 388.8146351137606 638.3091902264405 L 369.0594080279158 631.7955460708777 L 349.99999999999994 623.2050807568877 L 331.8551642892127 612.6124158693643 L 314.835617515511 600.115254746434 L 299.1416004280892 585.8335130908484 L 284.96053314751083 569.9081914676647 L 272.4647922241901 552.5 L 261.80963572562416 533.7877484736148 L 253.13130112690314 513.9665178356139 L 246.5452990473685 493.24563169009434 L 242.1449238680309 471.84644882293986 L 240 450.00000000000017 L 240.1558800772943 427.94449425052517 L 242.63270864443322 405.92272154663493 L 247.42496202913233 384.179380198136 L 254.50127206448323 362.95835838177914 L 263.80453818634555 342.5000000000003 L 275.2523292150113 323.03838550482595 L 288.7375728714054 304.7986584201278 L 304.12952781376896 287.994428045928 L 321.27502974794857 272.8252782318864 L 339.9999999999996 259.47441116742374 L 360.11120188024785 248.10645386098534 L 381.3982272487615 238.86545338247598 L 403.6356929476396 231.87308503636135 L 426.5856242280457 227.22709543750676 L 450.00000000000017 225 L 473.6234326984892 225.23805164677017 L 497.195953815631 227.96049463342607 L 520.4558747174879 233.1591142847049 L 543.1426912643582 240.79809019984438 L 565 250.81415712957914 L 585.7783932795614 263.11707429938724 L 605.2383006752548 277.5904004892442 L 623.1527443362327 294.0925687183858 L 639.3099766837375 312.4582509635611 L 653.5159698893431 332.4999999999999 L 665.5967280036539 354.0101522341112 L 675.4003943619515 376.76297233313767 L 682.7991289746457 400.5170175853728 L 687.6907329930173 425.0176972790305 L 690 449.9999999999998 L 630 450" stroke-opacity="1" stroke-linecap="round" stroke-miterlimit="10" stroke-dasharray=""/></g></svg>