<svg xmlns="http://www.w3.org/2000/svg" viewBox="0 0 33 33" shape-rendering="crispEdges" style="fill: rgb(255, 255, 255);"><path fill="#ffffff" d="M0 0h33v33H0z"/><path stroke="#000000" d="M2 2.5h7m1 0h3m3 0h1m1 0h5m1 0h7M2 3.5h1m5 0h1m1 0h1m1 0h1m2 0h1m6 0h1m1 0h1m5 0h1M2 4.5h1m1 0h3m1 0h1m2 0h3m1 0h1m2 0h1m1 0h2m2 0h1m1 0h3m1 0h1M2 5.5h1m1 0h3m1 0h1m1 0h1m2 0h1m1 0h2m1 0h2m2 0h1m1 0h1m1 0h3m1 0h1M2 6.5h1m1 0h3m1 0h1m2 0h2m4 0h1m3 0h1m2 0h1m1 0h3m1 0h1M2 7.5h1m5 0h1m2 0h2m1 0h2m4 0h3m1 0h1m5 0h1M2 8.5h7m1 0h1m1 0h1m1 0h1m1 0h1m1 0h1m1 0h1m1 0h1m1 0h7M10 9.5h2m4 0h6M2 10.5h1m1 0h2m1 0h3m2 0h3m1 0h1m1 0h4m2 0h1m2 0h1m1 0h2M3 11.5h2m1 0h2m1 0h1m1 0h6m1 0h5m1 0h1m1 0h1m3 0h1M2 12.5h1m2 0h1m2 0h3m1 0h3m1 0h1m1 0h3m2 0h1m1 0h5M2 13.5h4m1 0h1m1 0h3m3 0h2m1 0h1m1 0h3m1 0h2m3 0h2M4 14.5h1m3 0h1m1 0h7m1 0h2m2 0h1m5 0h2M2 15.5h1m1 0h3m2 0h1m2 0h1m3 0h9m2 0h4M3 16.5h1m1 0h2m1 0h2m1 0h2m6 0h3m3 0h4m1 0h1M3 17.5h2m1 0h2m1 0h6m1 0h3m2 0h2m3 0h2m2 0h1M5 18.5h1m2 0h3m1 0h4m2 0h1m1 0h1m5 0h2M6 19.5h1m2 0h1m1 0h8m1 0h1m1 0h2m3 0h2M2 20.5h1m1 0h1m1 0h1m1 0h1m2 0h1m1 0h2m1 0h3m3 0h2m3 0h1M7 21.5h1m1 0h3m1 0h2m1 0h2m1 0h2m1 0h1m1 0h5m1 0h1M3 22.5h1m1 0h2m1 0h5m3 0h1m1 0h2m1 0h6m1 0h1m1 0h1M10 23.5h1m2 0h3m2 0h1m3 0h1m3 0h2m1 0h2M2 24.5h7m1 0h1m2 0h1m1 0h1m2 0h1m1 0h3m1 0h1m1 0h4M2 25.5h1m5 0h1m1 0h2m1 0h1m1 0h1m4 0h1m1 0h1m3 0h1M2 26.5h1m1 0h3m1 0h1m2 0h1m1 0h1m5 0h1m2 0h9M2 27.5h1m1 0h3m1 0h1m1 0h1m1 0h1m2 0h4m4 0h1m1 0h2m3 0h1M2 28.5h1m1 0h3m1 0h1m1 0h5m1 0h1m1 0h2m1 0h3m1 0h1m1 0h2m1 0h1M2 29.5h1m5 0h1m2 0h1m1 0h1m1 0h2m3 0h1m1 0h1m2 0h2m2 0h1M2 30.5h7m1 0h3m1 0h1m3 0h1m2 0h3m1 0h3m1 0h1"/></svg>